{
	"patcher" : 	{
		"fileversion" : 1,
		"appversion" : 		{
			"major" : 8,
			"minor" : 6,
			"revision" : 4,
			"architecture" : "x64",
			"modernui" : 1
		}
,
		"classnamespace" : "box",
		"rect" : [ 1800.0, 153.0, 1251.0, 763.0 ],
		"bglocked" : 0,
		"openinpresentation" : 1,
		"default_fontsize" : 12.0,
		"default_fontface" : 0,
		"default_fontname" : "Arial",
		"gridonopen" : 1,
		"gridsize" : [ 15.0, 15.0 ],
		"gridsnaponopen" : 1,
		"objectsnaponopen" : 1,
		"statusbarvisible" : 2,
		"toolbarvisible" : 1,
		"lefttoolbarpinned" : 0,
		"toptoolbarpinned" : 0,
		"righttoolbarpinned" : 0,
		"bottomtoolbarpinned" : 0,
		"toolbars_unpinned_last_save" : 0,
		"tallnewobj" : 0,
		"boxanimatetime" : 200,
		"enablehscroll" : 1,
		"enablevscroll" : 1,
		"devicewidth" : 0.0,
		"description" : "",
		"digest" : "",
		"tags" : "",
		"style" : "",
		"subpatcher_template" : "",
		"assistshowspatchername" : 0,
		"boxes" : [ 			{
				"box" : 				{
					"id" : "obj-44",
					"maxclass" : "newobj",
					"numinlets" : 0,
					"numoutlets" : 1,
					"outlettype" : [ "" ],
					"patching_rect" : [ 606.0, 352.399993896484375, 114.0, 22.0 ],
					"text" : "r global_subdivision"
				}

			}
, 			{
				"box" : 				{
					"id" : "obj-39",
					"maxclass" : "newobj",
					"numinlets" : 0,
					"numoutlets" : 1,
					"outlettype" : [ "" ],
					"patching_rect" : [ 1169.0, 415.20001220703125, 114.0, 22.0 ],
					"text" : "r global_subdivision"
				}

			}
, 			{
				"box" : 				{
					"id" : "obj-38",
					"maxclass" : "newobj",
					"numinlets" : 0,
					"numoutlets" : 1,
					"outlettype" : [ "" ],
					"patching_rect" : [ 983.0, 359.0, 114.0, 22.0 ],
					"text" : "r global_subdivision"
				}

			}
, 			{
				"box" : 				{
					"id" : "obj-31",
					"maxclass" : "newobj",
					"numinlets" : 0,
					"numoutlets" : 1,
					"outlettype" : [ "" ],
					"patching_rect" : [ 624.5, 94.0, 114.0, 22.0 ],
					"text" : "r global_subdivision"
				}

			}
, 			{
				"box" : 				{
					"id" : "obj-30",
					"maxclass" : "newobj",
					"numinlets" : 1,
					"numoutlets" : 0,
					"patching_rect" : [ 306.0, 220.0, 116.0, 22.0 ],
					"text" : "s global_subdivision"
				}

			}
, 			{
				"box" : 				{
					"id" : "obj-22",
					"maxclass" : "newobj",
					"numinlets" : 1,
					"numoutlets" : 1,
					"outlettype" : [ "" ],
					"patching_rect" : [ 1201.0, 237.0, 70.0, 22.0 ],
					"text" : "loadmess 9"
				}

			}
, 			{
				"box" : 				{
					"id" : "obj-19",
					"maxclass" : "newobj",
					"numinlets" : 1,
					"numoutlets" : 1,
					"outlettype" : [ "" ],
					"patching_rect" : [ 769.0, 245.5, 77.0, 22.0 ],
					"text" : "loadmess 14"
				}

			}
, 			{
				"box" : 				{
					"id" : "obj-18",
					"maxclass" : "newobj",
					"numinlets" : 1,
					"numoutlets" : 1,
					"outlettype" : [ "" ],
					"patching_rect" : [ 1075.0, 144.0, 77.0, 22.0 ],
					"text" : "loadmess 20"
				}

			}
, 			{
				"box" : 				{
					"id" : "obj-16",
					"maxclass" : "newobj",
					"numinlets" : 1,
					"numoutlets" : 1,
					"outlettype" : [ "bang" ],
					"patching_rect" : [ 149.0, 214.0, 58.0, 22.0 ],
					"text" : "loadbang"
				}

			}
, 			{
				"box" : 				{
					"id" : "obj-4",
					"maxclass" : "newobj",
					"numinlets" : 1,
					"numoutlets" : 1,
					"outlettype" : [ "" ],
					"patching_rect" : [ 643.0, 144.0, 77.0, 22.0 ],
					"text" : "loadmess 20"
				}

			}
, 			{
				"box" : 				{
					"id" : "obj-2",
					"maxclass" : "newobj",
					"numinlets" : 1,
					"numoutlets" : 0,
					"patching_rect" : [ 763.70001220703125, 704.0, 178.0, 22.0 ],
					"saved_object_attributes" : 					{
						"versionnumber" : 80300
					}
,
					"text" : "bach.print symmetric_difference"
				}

			}
, 			{
				"box" : 				{
					"id" : "obj-1",
					"maxclass" : "newobj",
					"numinlets" : 1,
					"numoutlets" : 1,
					"outlettype" : [ "" ],
					"patching_rect" : [ 51.0, 650.0, 77.0, 22.0 ],
					"text" : "loadmess 10"
				}

			}
, 			{
				"box" : 				{
					"id" : "obj-23",
					"maxclass" : "newobj",
					"numinlets" : 3,
					"numoutlets" : 3,
					"outlettype" : [ "", "", "" ],
					"patching_rect" : [ 893.5, 568.66668701171875, 99.0, 22.0 ],
					"saved_object_attributes" : 					{
						"embed" : 1,
						"versionnumber" : 80102
					}
,
					"text" : "bach.intersection"
				}

			}
, 			{
				"box" : 				{
					"id" : "obj-14",
					"maxclass" : "newobj",
					"numinlets" : 1,
					"numoutlets" : 0,
					"patching_rect" : [ 478.0, 529.20001220703125, 123.0, 22.0 ],
					"saved_object_attributes" : 					{
						"versionnumber" : 80300
					}
,
					"text" : "bach.print modulus_1"
				}

			}
, 			{
				"box" : 				{
					"id" : "obj-6",
					"maxclass" : "newobj",
					"numinlets" : 1,
					"numoutlets" : 0,
					"patching_rect" : [ 937.0, 496.0, 123.0, 22.0 ],
					"saved_object_attributes" : 					{
						"versionnumber" : 80300
					}
,
					"text" : "bach.print modulus_2"
				}

			}
, 			{
				"box" : 				{
					"id" : "obj-5",
					"maxclass" : "newobj",
					"numinlets" : 1,
					"numoutlets" : 0,
					"patching_rect" : [ 893.5, 622.0, 126.0, 22.0 ],
					"saved_object_attributes" : 					{
						"versionnumber" : 80300
					}
,
					"text" : "bach.print intersection"
				}

			}
, 			{
				"box" : 				{
					"id" : "obj-85",
					"maxclass" : "newobj",
					"numinlets" : 1,
					"numoutlets" : 1,
					"outlettype" : [ "" ],
					"patcher" : 					{
						"fileversion" : 1,
						"appversion" : 						{
							"major" : 8,
							"minor" : 6,
							"revision" : 4,
							"architecture" : "x64",
							"modernui" : 1
						}
,
						"classnamespace" : "box",
						"rect" : [ 59.0, 106.0, 640.0, 480.0 ],
						"bglocked" : 0,
						"openinpresentation" : 0,
						"default_fontsize" : 12.0,
						"default_fontface" : 0,
						"default_fontname" : "Arial",
						"gridonopen" : 1,
						"gridsize" : [ 15.0, 15.0 ],
						"gridsnaponopen" : 1,
						"objectsnaponopen" : 1,
						"statusbarvisible" : 2,
						"toolbarvisible" : 1,
						"lefttoolbarpinned" : 0,
						"toptoolbarpinned" : 0,
						"righttoolbarpinned" : 0,
						"bottomtoolbarpinned" : 0,
						"toolbars_unpinned_last_save" : 0,
						"tallnewobj" : 0,
						"boxanimatetime" : 200,
						"enablehscroll" : 1,
						"enablevscroll" : 1,
						"devicewidth" : 0.0,
						"description" : "",
						"digest" : "",
						"tags" : "",
						"style" : "",
						"subpatcher_template" : "",
						"assistshowspatchername" : 0,
						"boxes" : [ 							{
								"box" : 								{
									"fontname" : "Geneva",
									"fontsize" : 9.0,
									"id" : "obj-1",
									"maxclass" : "newobj",
									"numinlets" : 5,
									"numoutlets" : 4,
									"outlettype" : [ "int", "", "", "int" ],
									"patching_rect" : [ 144.0, 191.0, 74.0, 19.0 ],
									"text" : "counter 400"
								}

							}
, 							{
								"box" : 								{
									"fontname" : "Geneva",
									"fontsize" : 9.0,
									"id" : "obj-2",
									"maxclass" : "number",
									"numinlets" : 1,
									"numoutlets" : 2,
									"outlettype" : [ "", "bang" ],
									"parameter_enable" : 0,
									"patching_rect" : [ 144.0, 218.0, 35.0, 19.0 ],
									"triscale" : 0.9
								}

							}
, 							{
								"box" : 								{
									"fontname" : "Geneva",
									"fontsize" : 9.0,
									"id" : "obj-51",
									"maxclass" : "newobj",
									"numinlets" : 2,
									"numoutlets" : 1,
									"outlettype" : [ "int" ],
									"patching_rect" : [ 172.0, 167.0, 36.0, 19.0 ],
									"text" : "int 0"
								}

							}
, 							{
								"box" : 								{
									"fontname" : "Geneva",
									"fontsize" : 9.0,
									"id" : "obj-53",
									"maxclass" : "newobj",
									"numinlets" : 2,
									"numoutlets" : 3,
									"outlettype" : [ "bang", "bang", "int" ],
									"patching_rect" : [ 144.0, 134.0, 52.0, 19.0 ],
									"text" : "Uzi"
								}

							}
, 							{
								"box" : 								{
									"id" : "obj-5",
									"maxclass" : "button",
									"numinlets" : 1,
									"numoutlets" : 1,
									"outlettype" : [ "bang" ],
									"parameter_enable" : 0,
									"patching_rect" : [ 210.0, 135.0, 15.0, 15.0 ]
								}

							}
, 							{
								"box" : 								{
									"fontname" : "Geneva",
									"fontsize" : 9.0,
									"id" : "obj-6",
									"maxclass" : "comment",
									"numinlets" : 1,
									"numoutlets" : 0,
									"patching_rect" : [ 227.0, 136.0, 32.0, 17.0 ],
									"text" : "reset"
								}

							}
, 							{
								"box" : 								{
									"fontname" : "Geneva",
									"fontsize" : 9.0,
									"id" : "obj-55",
									"linecount" : 2,
									"maxclass" : "message",
									"numinlets" : 2,
									"numoutlets" : 1,
									"outlettype" : [ "" ],
									"patching_rect" : [ 144.0, 273.0, 165.0, 30.0 ],
									"text" : "0 1 2 3 4 5 6 7 8 9 10 11 12 13 14 15"
								}

							}
, 							{
								"box" : 								{
									"fontname" : "Geneva",
									"fontsize" : 9.0,
									"id" : "obj-58",
									"maxclass" : "newobj",
									"numinlets" : 1,
									"numoutlets" : 4,
									"outlettype" : [ "bang", "bang", "int", "bang" ],
									"patching_rect" : [ 111.0, 100.0, 118.0, 19.0 ],
									"text" : "t b b i b"
								}

							}
, 							{
								"box" : 								{
									"id" : "obj-76",
									"maxclass" : "button",
									"numinlets" : 1,
									"numoutlets" : 1,
									"outlettype" : [ "bang" ],
									"parameter_enable" : 0,
									"patching_rect" : [ 111.0, 244.0, 15.0, 15.0 ]
								}

							}
, 							{
								"box" : 								{
									"fontname" : "Geneva",
									"fontsize" : 9.0,
									"id" : "obj-14",
									"maxclass" : "newobj",
									"numinlets" : 2,
									"numoutlets" : 1,
									"outlettype" : [ "" ],
									"patching_rect" : [ 144.0, 244.0, 85.0, 19.0 ],
									"text" : "collect"
								}

							}
, 							{
								"box" : 								{
									"fontname" : "Geneva",
									"fontsize" : 9.0,
									"id" : "obj-79",
									"maxclass" : "comment",
									"numinlets" : 1,
									"numoutlets" : 0,
									"patching_rect" : [ 50.0, 244.0, 54.0, 17.0 ],
									"text" : "output list"
								}

							}
, 							{
								"box" : 								{
									"comment" : "",
									"id" : "obj-81",
									"index" : 1,
									"maxclass" : "inlet",
									"numinlets" : 0,
									"numoutlets" : 1,
									"outlettype" : [ "" ],
									"patching_rect" : [ 111.0, 40.0, 30.0, 30.0 ]
								}

							}
, 							{
								"box" : 								{
									"comment" : "",
									"id" : "obj-83",
									"index" : 1,
									"maxclass" : "outlet",
									"numinlets" : 1,
									"numoutlets" : 0,
									"patching_rect" : [ 144.0, 352.0, 30.0, 30.0 ]
								}

							}
 ],
						"lines" : [ 							{
								"patchline" : 								{
									"destination" : [ "obj-2", 0 ],
									"source" : [ "obj-1", 0 ]
								}

							}
, 							{
								"patchline" : 								{
									"destination" : [ "obj-55", 0 ],
									"source" : [ "obj-14", 0 ]
								}

							}
, 							{
								"patchline" : 								{
									"destination" : [ "obj-14", 0 ],
									"source" : [ "obj-2", 0 ]
								}

							}
, 							{
								"patchline" : 								{
									"destination" : [ "obj-14", 1 ],
									"order" : 0,
									"source" : [ "obj-5", 0 ]
								}

							}
, 							{
								"patchline" : 								{
									"destination" : [ "obj-51", 0 ],
									"order" : 1,
									"source" : [ "obj-5", 0 ]
								}

							}
, 							{
								"patchline" : 								{
									"destination" : [ "obj-1", 2 ],
									"source" : [ "obj-51", 0 ]
								}

							}
, 							{
								"patchline" : 								{
									"destination" : [ "obj-1", 0 ],
									"source" : [ "obj-53", 0 ]
								}

							}
, 							{
								"patchline" : 								{
									"destination" : [ "obj-83", 0 ],
									"source" : [ "obj-55", 0 ]
								}

							}
, 							{
								"patchline" : 								{
									"destination" : [ "obj-5", 0 ],
									"source" : [ "obj-58", 3 ]
								}

							}
, 							{
								"patchline" : 								{
									"destination" : [ "obj-53", 1 ],
									"source" : [ "obj-58", 2 ]
								}

							}
, 							{
								"patchline" : 								{
									"destination" : [ "obj-53", 0 ],
									"source" : [ "obj-58", 1 ]
								}

							}
, 							{
								"patchline" : 								{
									"destination" : [ "obj-76", 0 ],
									"source" : [ "obj-58", 0 ]
								}

							}
, 							{
								"patchline" : 								{
									"destination" : [ "obj-55", 0 ],
									"source" : [ "obj-76", 0 ]
								}

							}
, 							{
								"patchline" : 								{
									"destination" : [ "obj-58", 0 ],
									"source" : [ "obj-81", 0 ]
								}

							}
 ]
					}
,
					"patching_rect" : [ 1075.0, 268.0, 87.0, 22.0 ],
					"saved_object_attributes" : 					{
						"description" : "",
						"digest" : "",
						"globalpatchername" : "",
						"tags" : ""
					}
,
					"text" : "p make-scale2"
				}

			}
, 			{
				"box" : 				{
					"id" : "obj-50",
					"maxclass" : "newobj",
					"numinlets" : 1,
					"numoutlets" : 1,
					"outlettype" : [ "" ],
					"patcher" : 					{
						"fileversion" : 1,
						"appversion" : 						{
							"major" : 8,
							"minor" : 6,
							"revision" : 4,
							"architecture" : "x64",
							"modernui" : 1
						}
,
						"classnamespace" : "box",
						"rect" : [ 59.0, 106.0, 640.0, 480.0 ],
						"bglocked" : 0,
						"openinpresentation" : 0,
						"default_fontsize" : 12.0,
						"default_fontface" : 0,
						"default_fontname" : "Arial",
						"gridonopen" : 1,
						"gridsize" : [ 15.0, 15.0 ],
						"gridsnaponopen" : 1,
						"objectsnaponopen" : 1,
						"statusbarvisible" : 2,
						"toolbarvisible" : 1,
						"lefttoolbarpinned" : 0,
						"toptoolbarpinned" : 0,
						"righttoolbarpinned" : 0,
						"bottomtoolbarpinned" : 0,
						"toolbars_unpinned_last_save" : 0,
						"tallnewobj" : 0,
						"boxanimatetime" : 200,
						"enablehscroll" : 1,
						"enablevscroll" : 1,
						"devicewidth" : 0.0,
						"description" : "",
						"digest" : "",
						"tags" : "",
						"style" : "",
						"subpatcher_template" : "",
						"assistshowspatchername" : 0,
						"boxes" : [ 							{
								"box" : 								{
									"fontname" : "Geneva",
									"fontsize" : 9.0,
									"id" : "obj-1",
									"maxclass" : "newobj",
									"numinlets" : 5,
									"numoutlets" : 4,
									"outlettype" : [ "int", "", "", "int" ],
									"patching_rect" : [ 144.0, 191.0, 74.0, 19.0 ],
									"text" : "counter 400"
								}

							}
, 							{
								"box" : 								{
									"fontname" : "Geneva",
									"fontsize" : 9.0,
									"id" : "obj-2",
									"maxclass" : "number",
									"numinlets" : 1,
									"numoutlets" : 2,
									"outlettype" : [ "", "bang" ],
									"parameter_enable" : 0,
									"patching_rect" : [ 144.0, 218.0, 35.0, 19.0 ],
									"triscale" : 0.9
								}

							}
, 							{
								"box" : 								{
									"fontname" : "Geneva",
									"fontsize" : 9.0,
									"id" : "obj-5",
									"maxclass" : "newobj",
									"numinlets" : 2,
									"numoutlets" : 1,
									"outlettype" : [ "int" ],
									"patching_rect" : [ 172.0, 167.0, 36.0, 19.0 ],
									"text" : "int 0"
								}

							}
, 							{
								"box" : 								{
									"fontname" : "Geneva",
									"fontsize" : 9.0,
									"id" : "obj-6",
									"maxclass" : "newobj",
									"numinlets" : 2,
									"numoutlets" : 3,
									"outlettype" : [ "bang", "bang", "int" ],
									"patching_rect" : [ 144.0, 134.0, 52.0, 19.0 ],
									"text" : "Uzi"
								}

							}
, 							{
								"box" : 								{
									"id" : "obj-14",
									"maxclass" : "button",
									"numinlets" : 1,
									"numoutlets" : 1,
									"outlettype" : [ "bang" ],
									"parameter_enable" : 0,
									"patching_rect" : [ 210.0, 135.0, 15.0, 15.0 ]
								}

							}
, 							{
								"box" : 								{
									"fontname" : "Geneva",
									"fontsize" : 9.0,
									"id" : "obj-16",
									"maxclass" : "comment",
									"numinlets" : 1,
									"numoutlets" : 0,
									"patching_rect" : [ 227.0, 136.0, 32.0, 17.0 ],
									"text" : "reset"
								}

							}
, 							{
								"box" : 								{
									"fontname" : "Geneva",
									"fontsize" : 9.0,
									"id" : "obj-18",
									"maxclass" : "message",
									"numinlets" : 2,
									"numoutlets" : 1,
									"outlettype" : [ "" ],
									"patching_rect" : [ 144.0, 273.0, 165.0, 19.0 ],
									"text" : "0 1 2 3 4 5 6 7 8 9"
								}

							}
, 							{
								"box" : 								{
									"fontname" : "Geneva",
									"fontsize" : 9.0,
									"id" : "obj-22",
									"maxclass" : "newobj",
									"numinlets" : 1,
									"numoutlets" : 4,
									"outlettype" : [ "bang", "bang", "int", "bang" ],
									"patching_rect" : [ 111.0, 100.0, 118.0, 19.0 ],
									"text" : "t b b i b"
								}

							}
, 							{
								"box" : 								{
									"id" : "obj-31",
									"maxclass" : "button",
									"numinlets" : 1,
									"numoutlets" : 1,
									"outlettype" : [ "bang" ],
									"parameter_enable" : 0,
									"patching_rect" : [ 111.0, 244.0, 15.0, 15.0 ]
								}

							}
, 							{
								"box" : 								{
									"fontname" : "Geneva",
									"fontsize" : 9.0,
									"id" : "obj-33",
									"maxclass" : "newobj",
									"numinlets" : 2,
									"numoutlets" : 1,
									"outlettype" : [ "" ],
									"patching_rect" : [ 144.0, 244.0, 85.0, 19.0 ],
									"text" : "collect"
								}

							}
, 							{
								"box" : 								{
									"fontname" : "Geneva",
									"fontsize" : 9.0,
									"id" : "obj-39",
									"maxclass" : "comment",
									"numinlets" : 1,
									"numoutlets" : 0,
									"patching_rect" : [ 50.0, 244.0, 54.0, 17.0 ],
									"text" : "output list"
								}

							}
, 							{
								"box" : 								{
									"comment" : "",
									"id" : "obj-44",
									"index" : 1,
									"maxclass" : "inlet",
									"numinlets" : 0,
									"numoutlets" : 1,
									"outlettype" : [ "" ],
									"patching_rect" : [ 111.0, 40.0, 30.0, 30.0 ]
								}

							}
, 							{
								"box" : 								{
									"comment" : "",
									"id" : "obj-48",
									"index" : 1,
									"maxclass" : "outlet",
									"numinlets" : 1,
									"numoutlets" : 0,
									"patching_rect" : [ 144.0, 352.0, 30.0, 30.0 ]
								}

							}
 ],
						"lines" : [ 							{
								"patchline" : 								{
									"destination" : [ "obj-2", 0 ],
									"source" : [ "obj-1", 0 ]
								}

							}
, 							{
								"patchline" : 								{
									"destination" : [ "obj-33", 1 ],
									"order" : 0,
									"source" : [ "obj-14", 0 ]
								}

							}
, 							{
								"patchline" : 								{
									"destination" : [ "obj-5", 0 ],
									"order" : 1,
									"source" : [ "obj-14", 0 ]
								}

							}
, 							{
								"patchline" : 								{
									"destination" : [ "obj-48", 0 ],
									"source" : [ "obj-18", 0 ]
								}

							}
, 							{
								"patchline" : 								{
									"destination" : [ "obj-33", 0 ],
									"source" : [ "obj-2", 0 ]
								}

							}
, 							{
								"patchline" : 								{
									"destination" : [ "obj-14", 0 ],
									"source" : [ "obj-22", 3 ]
								}

							}
, 							{
								"patchline" : 								{
									"destination" : [ "obj-31", 0 ],
									"source" : [ "obj-22", 0 ]
								}

							}
, 							{
								"patchline" : 								{
									"destination" : [ "obj-6", 1 ],
									"source" : [ "obj-22", 2 ]
								}

							}
, 							{
								"patchline" : 								{
									"destination" : [ "obj-6", 0 ],
									"source" : [ "obj-22", 1 ]
								}

							}
, 							{
								"patchline" : 								{
									"destination" : [ "obj-18", 0 ],
									"source" : [ "obj-31", 0 ]
								}

							}
, 							{
								"patchline" : 								{
									"destination" : [ "obj-18", 0 ],
									"source" : [ "obj-33", 0 ]
								}

							}
, 							{
								"patchline" : 								{
									"destination" : [ "obj-22", 0 ],
									"source" : [ "obj-44", 0 ]
								}

							}
, 							{
								"patchline" : 								{
									"destination" : [ "obj-1", 2 ],
									"source" : [ "obj-5", 0 ]
								}

							}
, 							{
								"patchline" : 								{
									"destination" : [ "obj-1", 0 ],
									"source" : [ "obj-6", 0 ]
								}

							}
 ]
					}
,
					"patching_rect" : [ 643.0, 232.0, 87.0, 22.0 ],
					"saved_object_attributes" : 					{
						"description" : "",
						"digest" : "",
						"globalpatchername" : "",
						"tags" : ""
					}
,
					"text" : "p make-scale1"
				}

			}
, 			{
				"box" : 				{
					"id" : "obj-47",
					"maxclass" : "newobj",
					"numinlets" : 3,
					"numoutlets" : 3,
					"outlettype" : [ "", "", "" ],
					"patching_rect" : [ 763.70001220703125, 655.66668701171875, 76.0, 22.0 ],
					"saved_object_attributes" : 					{
						"embed" : 1,
						"versionnumber" : 80102
					}
,
					"text" : "bach.symdiff"
				}

			}
, 			{
				"box" : 				{
					"id" : "obj-41",
					"maxclass" : "comment",
					"numinlets" : 1,
					"numoutlets" : 0,
					"patching_rect" : [ 503.5, 145.0, 78.0, 20.0 ],
					"text" : "Create Sieve"
				}

			}
, 			{
				"box" : 				{
					"id" : "obj-25",
					"maxclass" : "number",
					"numinlets" : 1,
					"numoutlets" : 2,
					"outlettype" : [ "", "bang" ],
					"parameter_enable" : 0,
					"patching_rect" : [ 1102.0, 450.20001220703125, 50.0, 22.0 ]
				}

			}
, 			{
				"box" : 				{
					"id" : "obj-29",
					"maxclass" : "newobj",
					"numinlets" : 2,
					"numoutlets" : 1,
					"outlettype" : [ "int" ],
					"patching_rect" : [ 1102.0, 415.20001220703125, 33.0, 22.0 ],
					"text" : "* $i1"
				}

			}
, 			{
				"box" : 				{
					"id" : "obj-24",
					"maxclass" : "number",
					"numinlets" : 1,
					"numoutlets" : 2,
					"outlettype" : [ "", "bang" ],
					"parameter_enable" : 0,
					"patching_rect" : [ 249.0, 247.0, 50.0, 22.0 ]
				}

			}
, 			{
				"box" : 				{
					"id" : "obj-17",
					"maxclass" : "newobj",
					"numinlets" : 2,
					"numoutlets" : 1,
					"outlettype" : [ "int" ],
					"patching_rect" : [ 249.0, 211.0, 33.0, 22.0 ],
					"text" : "* $i1"
				}

			}
, 			{
				"box" : 				{
					"bwcompatibility" : 80100,
					"defaultnoteslots" : [ "null" ],
					"fontface" : 0,
					"fontname" : "Arial",
					"fontsize" : 12.0,
					"id" : "obj-36",
					"loop" : [ "[", 1, 1, 0, "]", "[", 1, 1, "1/4", "]" ],
					"maxclass" : "bach.score",
					"numinlets" : 7,
					"numoutlets" : 9,
					"numvoices" : 1,
					"out" : "nnnnnnnn",
					"outlettype" : [ "", "", "", "", "", "", "", "", "bang" ],
					"patching_rect" : [ 309.666656494140625, 1013.66668701171875, 526.0, 117.833333333333343 ],
					"pitcheditrange" : [ "null" ],
					"presentation" : 1,
					"presentation_rect" : [ 21.0, 583.0, 1190.0, 117.833333333333343 ],
					"stafflines" : [ 5 ],
					"textcolor" : [ 0.0, 0.0, 0.0, 1.0 ],
					"versionnumber" : 80300,
					"voicenames" : [ "[", "]" ],
					"voicespacing" : [ 0.0, 17.0 ],
					"whole_score_data_0000000000" : [ "score", "[", "slotinfo", "[", 1, "[", "name", "velocity envelope", "]", "[", "type", "function", "]", "[", "key", 0, "]", "[", "range", "_x_x_x_x_bach_float64_x_x_x_x_", 0, 0, "_x_x_x_x_bach_float64_x_x_x_x_", 0, 1080016896, "]", "[", "slope", "_x_x_x_x_bach_float64_x_x_x_x_", 0, 0, "]", "[", "representation", "]", "[", "grid", "]", "[", "ysnap", "]", "[", "domain", "_x_x_x_x_bach_float64_x_x_x_x_", 0, 0, "_x_x_x_x_bach_float64_x_x_x_x_", 0, 1072693248, "]", "[", "domainslope", "_x_x_x_x_bach_float64_x_x_x_x_", 0, 0, "]", "[", "temporalmode", "relative", "]", "[", "extend", 0, "]", "[", "width", "auto", "]", "[", "height", "auto", "]", "[", "singleslotfortiednotes", 1, "]", "[", "copywhensplit", 0, "]", "[", "access", "readandwrite", "]", "]", "[", 2, "[", "name", "slot function", "]", "[", "type", "function", "]", "[", "key", 0, "]", "[", "range", "_x_x_x_x_bach_float64_x_x_x_x_", 0, 0, "_x_x_x_x_bach_float64_x_x_x_x_", 0, 1072693248, "]", "[", "slope", "_x_x_x_x_bach_float64_x_x_x_x_", 0, 0, "]", "[", "representation", "]", "[", "grid", "]", "[", "ysnap", "]", "[", "domain", "_x_x_x_x_bach_float64_x_x_x_x_", 0, 0, "_x_x_x_x_bach_float64_x_x_x_x_", 0, 1072693248, "]", "[", "domainslope", "_x_x_x_x_bach_float64_x_x_x_x_", 0, 0, "]", "[", "temporalmode", "relative", "]", "[", "extend", 0, "]", "[", "width", "auto", "]", "[", "height", "auto", "]", "[", "singleslotfortiednotes", 1, "]", "[", "copywhensplit", 0, "]", "[", "access", "readandwrite", "]", "]", "[", 3, "[", "name", "slot intlist", "]", "[", "type", "intlist", "]", "[", "key", 0, "]", "[", "range", "_x_x_x_x_bach_float64_x_x_x_x_", 0, 0, "_x_x_x_x_bach_float64_x_x_x_x_", 0, 1080016896, "]", "[", "slope", "_x_x_x_x_bach_float64_x_x_x_x_", 0, 0, "]", "[", "representation", "]", "[", "default", "_x_x_x_x_bach_float64_x_x_x_x_", 0, 1078984704, "]", "[", "temporalmode", "none", "]", "[", "extend", 0, "]", "[", "width", "_x_x_x_x_bach_float64_x_x_x_x_", 0, 1079574528, "]", "[", "height", "auto", "]", "[", "singleslotfortiednotes", 1, "]", "[", "copywhensplit", 1, "]", "[", "access", "readandwrite", "]", "]", "[", 4, "[", "name", "slot floatlist", "]", "[", "type", "floatlist", "]", "[", "key", 0, "]", "[", "range", "_x_x_x_x_bach_float64_x_x_x_x_", 0, 0, "_x_x_x_x_bach_float64_x_x_x_x_", 0, 1072693248, "]", "[", "slope", "_x_x_x_x_bach_float64_x_x_x_x_", 0, 0, "]", "[", "representation", "]", "[", "default", "_x_x_x_x_bach_float64_x_x_x_x_", 0, 0, "]", "[", "temporalmode", "none", "]", "[", "extend", 0, "]", "[", "width", "_x_x_x_x_bach_float64_x_x_x_x_", 0, 1079574528, "]", "[", "height", "auto", "]", "[", "singleslotfortiednotes", 1, "]", "[", "copywhensplit", 1, "]", "[", "access", "readandwrite", "]", "]", "[", 5, "[", "name", "slot int", "]", "[", "type", "int", "]", "[", "key", 0, "]", "[", "range", "_x_x_x_x_bach_float64_x_x_x_x_", 0, 0, "_x_x_x_x_bach_float64_x_x_x_x_", 0, 1080016896, "]", "[", "slope", "_x_x_x_x_bach_float64_x_x_x_x_", 0, 0, "]", "[", "representation", "]", "[", "default", "_x_x_x_x_bach_float64_x_x_x_x_", 0, 1078984704, "]", "[", "temporalmode", "none", "]", "[", "extend", 0, "]", "[", "width", "_x_x_x_x_bach_float64_x_x_x_x_", 0, 1079574528, "]", "[", "height", "auto", "]", "[", "singleslotfortiednotes", 1, "]", "[", "copywhensplit", 1, "]", "[", "access", "readandwrite", "]", "]", "[", 6, "[", "name", "slot float", "]", "[", "type", "float", "]", "[", "key", 0, "]", "[", "range", "_x_x_x_x_bach_float64_x_x_x_x_", 0, 0, "_x_x_x_x_bach_float64_x_x_x_x_", 0, 1072693248, "]", "[", "slope", "_x_x_x_x_bach_float64_x_x_x_x_", 0, 0, "]", "[", "representation", "]", "[", "default", "_x_x_x_x_bach_float64_x_x_x_x_", 0, 0, "]", "[", "temporalmode", "none", "]", "[", "extend", 0, "]", "[", "width", "_x_x_x_x_bach_float64_x_x_x_x_", 0, 1079574528, "]", "[", "height", "auto", "]", "[", "singleslotfortiednotes", 1, "]", "[", "copywhensplit", 1, "]", "[", "access", "readandwrite", "]", "]", "[", 7, "[", "name", "slot text", "]", "[", "type", "text", "]", "[", "key", 0, "]", "[", "temporalmode", "none", "]", "[", "extend", 0, "]", "[", "width", "_x_x_x_x_bach_float64_x_x_x_x_", 0, 1079574528, "]", "[", "height", "auto", "]", "[", "singleslotfortiednotes", 1, "]", "[", "copywhensplit", 0, "]", "[", "access", "readandwrite", "]", "]", "[", 8, "[", "name", "slot filelist", "]", "[", "type", "filelist", "]", "[", "key", 0, "]", "[", "temporalmode", "none", "]", "[", "extend", 0, "]", "[", "width", "_x_x_x_x_bach_float64_x_x_x_x_", 0, 1080213504, "]", "[", "height", "auto", "]", "[", "singleslotfortiednotes", 1, "]", "[", "copywhensplit", 1, "]", "[", "access", "readandwrite", "]", "]", "[", 9, "[", "name", "slot spat", "]", "[", "type", "spat", "]", "[", "key", 0, "]", "[", "range", "_x_x_x_x_bach_float64_x_x_x_x_", 0, 0, "_x_x_x_x_bach_float64_x_x_x_x_", 0, 1076101120, "]", "[", "slope", "_x_x_x_x_bach_float64_x_x_x_x_", 0, 0, "]", "[", "representation", "]", "[", "temporalmode", "relative", "]", "[", "extend", 0, "]", "[", "width", "auto", "]", "[", "height", "auto", "]", "[", "singleslotfortiednotes", 1, "]", "[", "copywhensplit", 0, "]", "[", "access", "readandwrite", "]", "]", "[", 10, "[", "name", "slot llll", "]", "[", "type", "llll", "]", "[", "key", 0, "]", "[", "temporalmode", "none", "]", "[", "extend", 0, "]", "[", "width", "_x_x_x_x_bach_float64_x_x_x_x_", 0, 1079574528, "]", "[", "height", "auto", "]", "[", "singleslotfortiednotes", 1, "]", "[", "copywhensplit", 0, "]", "[", "access", "readandwrite", "]", "]", "[", 11, "[", "name", "slot 11", "]", "[", "type", "none", "]", "[", "key", 0, "]", "[", "temporalmode", "none", "]", "[", "extend", 0, "]", "[", "width", "_x_x_x_x_bach_float64_x_x_x_x_", 0, 1079574528, "]", "[", "height", "auto", "]", "[", "singleslotfortiednotes", 1, "]", "[", "copywhensplit", 1, "]", "[", "access", "readandwrite", "]", "]", "[", 12, "[", "name", "slot 12", "]", "[", "type", "none", "]", "[", "key", 0, "]", "[", "temporalmode", "none", "]", "[", "extend", 0, "]", "[", "width", "_x_x_x_x_bach_float64_x_x_x_x_", 0, 1079574528, "]", "[", "height", "auto", "]", "[", "singleslotfortiednotes", 1, "]", "[", "copywhensplit", 1, "]", "[", "access", "readandwrite", "]", "]", "[", 13, "[", "name", "slot 13", "]", "[", "type", "none", "]", "[", "key", 0, "]", "[", "temporalmode", "none", "]", "[", "extend", 0, "]", "[", "width", "_x_x_x_x_bach_float64_x_x_x_x_", 0, 1079574528, "]", "[", "height", "auto", "]", "[", "singleslotfortiednotes", 1, "]", "[", "copywhensplit", 1, "]", "[", "access", "readandwrite", "]", "]", "[", 14, "[", "name", "slot 14", "]", "[", "type", "none", "]", "[", "key", 0, "]", "[", "temporalmode", "none", "]", "[", "extend", 0, "]", "[", "width", "_x_x_x_x_bach_float64_x_x_x_x_", 0, 1079574528, "]", "[", "height", "auto", "]", "[", "singleslotfortiednotes", 1, "]", "[", "copywhensplit", 1, "]", "[", "access", "readandwrite", "]", "]", "[", 15, "[", "name", "slot 15", "]", "[", "type", "none", "]", "[", "key", 0, "]", "[", "temporalmode", "none", "]", "[", "extend", 0, "]", "[", "width", "_x_x_x_x_bach_float64_x_x_x_x_", 0, 1079574528, "]", "[", "height", "auto", "]", "[", "singleslotfortiednotes", 1, "]", "[", "copywhensplit", 1, "]", "[", "access", "readandwrite", "]", "]", "[", 16, "[", "name", "slot 16", "]", "[", "type", "none", "]", "[", "key", 0, "]", "[", "temporalmode", "none", "]", "[", "extend", 0, "]", "[", "width", "_x_x_x_x_bach_float64_x_x_x_x_", 0, 1079574528, "]", "[", "height", "auto", "]", "[", "singleslotfortiednotes", 1, "]", "[", "copywhensplit", 1, "]", "[", "access", "readandwrite", "]", "]", "[", 17, "[", "name", "slot 17", "]", "[", "type", "none", "]", "[", "key", 0, "]", "[", "temporalmode", "none", "]", "[", "extend", 0, "]", "[", "width", "_x_x_x_x_bach_float64_x_x_x_x_", 0, 1079574528, "]", "[", "height", "auto", "]", "[", "singleslotfortiednotes", 1, "]", "[", "copywhensplit", 1, "]", "[", "access", "readandwrite", "]", "]", "[", 18, "[", "name", "slot 18", "]", "[", "type", "none", "]", "[", "key", 0, "]", "[", "temporalmode", "none", "]", "[", "extend", 0, "]", "[", "width", "_x_x_x_x_bach_float64_x_x_x_x_", 0, 1079574528, "]", "[", "height", "auto", "]", "[", "singleslotfortiednotes", 1, "]", "[", "copywhensplit", 1, "]", "[", "access", "readandwrite", "]", "]", "[", 19, "[", "name", "slot 19", "]", "[", "type", "none", "]", "[", "key", 0, "]", "[", "temporalmode", "none", "]", "[", "extend", 0, "]", "[", "width", "_x_x_x_x_bach_float64_x_x_x_x_", 0, 1079574528, "]", "[", "height", "auto", "]", "[", "singleslotfortiednotes", 1, "]", "[", "copywhensplit", 1, "]", "[", "access", "readandwrite", "]", "]", "[", 20, "[", "name", "dynamics", "]", "[", "type", "dynamics", "]", "[", "key", "d", "]", "[", "temporalmode", "none", "]", "[", "extend", 0, "]", "[", "width", "_x_x_x_x_bach_float64_x_x_x_x_", 0, 1079738368, "]", "[", "height", "auto", "]", "[", "singleslotfortiednotes", 1, "]", "[", "copywhensplit", 0, "]", "[", "access", "readandwrite", "]", "]", "[", 21, "[", "name", "lyrics", "]", "[", "type", "text", "]", "[", "key", "l", "]", "[", "temporalmode", "none", "]", "[", "extend", 0, "]", "[", "width", "_x_x_x_x_bach_float64_x_x_x_x_", 0, 1079574528, "]", "[", "height", "auto", "]", "[", "singleslotfortiednotes", 1, "]", "[", "copywhensplit", 0, "]", "[", "access", "readandwrite", "]", "]", "[", 22, "[", "name", "articulations", "]", "[", "type", "articulations", "]", "[", "key", "a", "]", "[", "temporalmode", "none", "]", "[", "extend", 0, "]", "[", "width", "_x_x_x_x_bach_float64_x_x_x_x_", 0, 1079738368, "]", "[", "height", "auto", "]", "[", "singleslotfortiednotes", 1, "]", "[", "copywhensplit", 1, "]", "[", "access", "readandwrite", "]", "]", "[", 23, "[", "name", "notehead", "]", "[", "type", "notehead", "]", "[", "key", "h", "]", "[", "temporalmode", "none", "]", "[", "extend", 0, "]", "[", "width", "_x_x_x_x_bach_float64_x_x_x_x_", 0, 1079738368, "]", "[", "height", "auto", "]", "[", "singleslotfortiednotes", 1, "]", "[", "copywhensplit", 1, "]", "[", "access", "readandwrite", "]", "]", "[", 24, "[", "name", "annotation", "]", "[", "type", "text", "]", "[", "key", "t", "]", "[", "temporalmode", "none", "]", "[", "extend", 0, "]", "[", "width", "_x_x_x_x_bach_float64_x_x_x_x_", 0, 1079574528, "]", "[", "height", "auto", "]", "[", "singleslotfortiednotes", 1, "]", "[", "copywhensplit", 1, "]", "[", "access", "readandwrite", "]", "]", "[", 25, "[", "name", "slot 25", "]", "[", "type", "none", "]", "[", "key", 0, "]", "[", "temporalmode", "none", "]", "[", "extend", 0, "]", "[", "width", "_x_x_x_x_bach_float64_x_x_x_x_", 0, 1079574528, "]", "[", "height", "auto", "]", "[", "singleslotfortiednotes", 1, "]", "[", "copywhensplit", 1, "]", "[", "access", "readandwrite", "]", "]", "[", 26, "[", "name", "slot 26", "]", "[", "type", "none", "]", "[", "key", 0, "]", "[", "temporalmode", "none", "]", "[", "extend", 0, "]", "[", "width", "_x_x_x_x_bach_float64_x_x_x_x_", 0, 1079574528, "]", "[", "height", "auto", "]", "[", "singleslotfortiednotes", 1, "]", "[", "copywhensplit", 1, "]", "[", "access", "readandwrite", "]", "]", "[", 27, "[", "name", "slot 27", "]", "[", "type", "none", "]", "[", "key", 0, "]", "[", "temporalmode", "none", "]", "[", "extend", 0, "]", "[", "width", "_x_x_x_x_bach_float64_x_x_x_x_", 0, 1079574528, "]", "[", "height", "auto", "]", "[", "singleslotfortiednotes", 1, "]", "[", "copywhensplit", 1, "]", "[", "access", "readandwrite", "]", "]", "[", 28, "[", "name", "slot 28", "]", "[", "type", "none", "]", "[", "key", 0, "]", "[", "temporalmode", "none", "]", "[", "extend", 0, "]", "[", "width", "_x_x_x_x_bach_float64_x_x_x_x_", 0, 1079574528, "]", "[", "height", "auto", "]", "[", "singleslotfortiednotes", 1, "]", "[", "copywhensplit", 1, "]", "[", "access", "readandwrite", "]", "]", "[", 29, "[", "name", "slot 29", "]", "[", "type", "none", "]", "[", "key", 0, "]", "[", "temporalmode", "none", "]", "[", "extend", 0, "]", "[", "width", "_x_x_x_x_bach_float64_x_x_x_x_", 0, 1079574528, "]", "[", "height", "auto", "]", "[", "singleslotfortiednotes", 1, "]", "[", "copywhensplit", 1, "]", "[", "access", "readandwrite", "]", "]", "[", 30, "[", "name", "slot 30", "]", "[", "type", "none", "]", "[", "key", 0, "]", "[", "temporalmode", "none", "]", "[", "extend", 0, "]", "[", "width", "_x_x_x_x_bach_float64_x_x_x_x_", 0, 1079574528, "]", "[", "height", "auto", "]", "[", "singleslotfortiednotes", 1, "]", "[", "copywhensplit", 1, "]", "[", "access", "readandwrite", "]", "]", "]", "[", "commands", "[", 1, "[", "name", "command", "]", "[", "note", "note", "]", "[", "chord", "chord", "]", "[", "rest", "rest", "]", "[", "marker", "marker", "]", "[", "start", "none", "]", "[", "end", "none", "]", "[", "key", 0, "]", "]", "[", 2, "[", "name", "command", "]", "[", "note", "note", "]", "[", "chord", "chord", "]", "[", "rest", "rest", "]", "[", "marker", "marker", "]", "[", "start", "none", "]", "[", "end", "none", "]", "[", "key", 0, "]", "]", "[", 3, "[", "name", "command", "]", "[", "note", "note", "]", "[", "chord", "chord", "]", "[", "rest", "rest", "]", "[", "marker", "marker", "]", "[", "start", "none", "]", "[", "end", "none", "]", "[", "key", 0, "]", "]", "[", 4, "[", "name", "command", "]", "[", "note", "note", "]", "[", "chord", "chord", "]", "[", "rest", "rest", "]", "[", "marker", "marker", "]", "[", "start", "none", "]", "[", "end", "none", "]", "[", "key", 0, "]", "]", "[", 5, "[", "name", "command", "]", "[", "note", "note", "]", "[", "chord", "chord", "]", "[", "rest", "rest", "]", "[", "marker", "marker", "]", "[", "start", "none", "]", "[", "end", "none", "]", "[", "key", 0, "]", "]", "]", "[", "markers", "]", "[", "midichannels", 1, "]", "[", "articulationinfo", "]", "[", "noteheadinfo", "]", "[", "[", "[", "[", 9, 8, "]", "[", "[", "1/8", 120, "]", "]", "]", "[", "leveltype", 1, "]", "[", "[", "leveltype", 8, "]", "[", "3/8", "[", "_x_x_x_x_bach_float64_x_x_x_x_", 0, 1085763584, 100, 1, 0, "]", 0, "]", "]", "[", "[", "leveltype", 8, "]", "[", "1/8", "[", "_x_x_x_x_bach_float64_x_x_x_x_", 0, 1085763584, 100, 1, 0, "]", 0, "]", "[", "1/32", "[", "_x_x_x_x_bach_float64_x_x_x_x_", 0, 1085763584, 100, 0, 0, "]", 0, "]", "[", "1/8", "[", "_x_x_x_x_bach_float64_x_x_x_x_", 0, 1085763584, 100, 1, 0, "]", 0, "]", "[", "3/32", "[", "_x_x_x_x_bach_float64_x_x_x_x_", 0, 1085763584, 100, 0, 0, "]", 0, "]", "]", "[", "[", "leveltype", 8, "]", "[", "1/8", "[", "_x_x_x_x_bach_float64_x_x_x_x_", 0, 1085763584, 100, 1, 0, "]", 0, "]", "[", "3/16", "[", "_x_x_x_x_bach_float64_x_x_x_x_", 0, 1085763584, 100, 0, 0, "]", 0, "]", "[", "1/16", "[", "_x_x_x_x_bach_float64_x_x_x_x_", 0, 1085763584, 100, 1, 0, "]", 0, "]", "]", 0, "]", "[", "[", "[", 9, 8, "]", "[", "]", "]", "[", "leveltype", 1, "]", "[", "[", "leveltype", 8, "]", "[", "3/8", "[", "_x_x_x_x_bach_float64_x_x_x_x_", 0, 1085763584, 100, 0, 0, "]", 0, "]", "]", "[", "[", "leveltype", 2, "]", "[", "[", "leveltype", 2, "]", "[", "3/32", "[", "_x_x_x_x_bach_float64_x_x_x_x_", 0, 1085763584, 100, 0, 0, "]", 0, "]", "[", "1/32", "[", "_x_x_x_x_bach_float64_x_x_x_x_", 0, 1085763584, 100, 1, 0, "]", 0, "]", "]", "[", "1/2", "[", "_x_x_x_x_bach_float64_x_x_x_x_", 0, 1085763584, 100, 0, 0, "]", 0, "]", "[", "1/8", "[", "_x_x_x_x_bach_float64_x_x_x_x_", 0, 1085763584, 100, 0, 0, "]", 0, "]", "]", 0, "]", "[", "[", "[", 9, 8, "]", "[", "]", "]", "[", "leveltype", 1, "]", "[", "[", "leveltype", 8, "]", "[", "3/8", "[", "_x_x_x_x_bach_float64_x_x_x_x_", 0, 1085763584, 100, 1, 0, "]", 0, "]", "]", "[", "[", "leveltype", 8, "]", "[", "[", "leveltype", 2, "]", "[", "1/32", "[", "_x_x_x_x_bach_float64_x_x_x_x_", 0, 1085763584, 100, 0, 0, "]", 0, "]", "[", "3/32", "[", "_x_x_x_x_bach_float64_x_x_x_x_", 0, 1085763584, 100, 1, 0, "]", 0, "]", "]", "[", "1/4", "[", "_x_x_x_x_bach_float64_x_x_x_x_", 0, 1085763584, 100, 0, 0, "]", 0, "]", "]", "[", "[", "leveltype", 8, "]", "[", "3/16", "[", "_x_x_x_x_bach_float64_x_x_x_x_", 0, 1085763584, 100, 0, 0, "]", 0, "]", "[", "3/16", "[", "_x_x_x_x_bach_float64_x_x_x_x_", 0, 1085763584, 100, 1, 0, "]", 0, "]", "]", 0, "]", "[", "[", "[", 9, 8, "]", "[", "]", "]", "[", "leveltype", 1, "]", "[", "[", "leveltype", 8, "]", "[", "1/4", "[", "_x_x_x_x_bach_float64_x_x_x_x_", 0, 1085763584, 100, 1, 0, "]", 0, "]", "[", "[", "leveltype", 2, "]", "[", "3/32", "[", "_x_x_x_x_bach_float64_x_x_x_x_", 0, 1085763584, 100, 0, 0, "]", 0, "]", "[", "1/32", "[", "_x_x_x_x_bach_float64_x_x_x_x_", 0, 1085763584, 100, 0, 0, "]", 0, "]", "]", "]", "[", "[", "leveltype", 8, "]", "[", "3/8", "[", "_x_x_x_x_bach_float64_x_x_x_x_", 0, 1085763584, 100, 1, 0, "]", 0, "]", "]", "[", "[", "leveltype", 8, "]", "[", "1/8", "[", "_x_x_x_x_bach_float64_x_x_x_x_", 0, 1085763584, 100, 0, 0, "]", 0, "]", "[", "1/4", "[", "_x_x_x_x_bach_float64_x_x_x_x_", 0, 1085763584, 100, 0, 0, "]", 0, "]", "]", 0, "]", "[", "[", "[", 9, 8, "]", "[", "]", "]", "[", "leveltype", 1, "]", "[", "[", "leveltype", 8, "]", "[", "1/4", "[", "_x_x_x_x_bach_float64_x_x_x_x_", 0, 1085763584, 100, 1, 0, "]", 0, "]", "[", "[", "leveltype", 2, "]", "[", "1/32", "[", "_x_x_x_x_bach_float64_x_x_x_x_", 0, 1085763584, 100, 0, 0, "]", 0, "]", "[", "3/32", "[", "_x_x_x_x_bach_float64_x_x_x_x_", 0, 1085763584, 100, 1, 0, "]", 0, "]", "]", "]", "[", "[", "leveltype", 8, "]", "[", "3/8", "[", "_x_x_x_x_bach_float64_x_x_x_x_", 0, 1085763584, 100, 0, 0, "]", 0, "]", "]", "[", "[", "leveltype", 8, "]", "[", "3/8", "[", "_x_x_x_x_bach_float64_x_x_x_x_", 0, 1085763584, 100, 1, 0, "]", 0, "]", "]", 0, "]", "[", "[", "[", 9, 8, "]", "[", "]", "]", "[", "leveltype", 1, "]", "[", "[", "leveltype", 8, "]", "[", "3/8", "[", "_x_x_x_x_bach_float64_x_x_x_x_", 0, 1085763584, 100, 0, 0, "]", 0, "]", "]", "[", "3/4", "[", "_x_x_x_x_bach_float64_x_x_x_x_", 0, 1085763584, 100, 0, 0, "]", 0, "]", 0, "]", "[", "[", "[", 9, 8, "]", "[", "]", "]", "[", "leveltype", 1, "]", "[", "3/4", "[", "_x_x_x_x_bach_float64_x_x_x_x_", 0, 1085763584, 100, 0, 0, "]", 0, "]", "[", "[", "leveltype", 8, "]", "[", "3/8", "[", "_x_x_x_x_bach_float64_x_x_x_x_", 0, 1085763584, 100, 1, 0, "]", 0, "]", "]", 0, "]", "[", "[", "[", 9, 8, "]", "[", "]", "]", "[", "leveltype", 1, "]", "[", "[", "leveltype", 8, "]", "[", "3/8", "[", "_x_x_x_x_bach_float64_x_x_x_x_", 0, 1085763584, 100, 0, 0, "]", 0, "]", "]", "[", "3/4", "[", "_x_x_x_x_bach_float64_x_x_x_x_", 0, 1085763584, 100, 0, 0, "]", 0, "]", 0, "]", "[", "[", "[", 9, 8, "]", "[", "]", "]", "[", "leveltype", 1, "]", "[", "3/4", "[", "_x_x_x_x_bach_float64_x_x_x_x_", 0, 1085763584, 100, 0, 0, "]", 0, "]", "[", "[", "leveltype", 8, "]", "[", "3/8", "[", "_x_x_x_x_bach_float64_x_x_x_x_", 0, 1085763584, 100, 1, 0, "]", 0, "]", "]", 0, "]", "[", "[", "[", 9, 8, "]", "[", "]", "]", "[", "leveltype", 1, "]", "[", "[", "leveltype", 8, "]", "[", "3/8", "[", "_x_x_x_x_bach_float64_x_x_x_x_", 0, 1085763584, 100, 0, 0, "]", 0, "]", "]", "[", "3/4", "[", "_x_x_x_x_bach_float64_x_x_x_x_", 0, 1085763584, 100, 0, 0, "]", 0, "]", 0, "]", "[", "[", "[", 9, 8, "]", "[", "]", "]", "[", "leveltype", 1, "]", "[", "[", "leveltype", 8, "]", "[", "1/8", "[", "_x_x_x_x_bach_float64_x_x_x_x_", 0, 1085763584, 100, 0, 0, "]", 0, "]", "[", "-1/4", 0, "]", "]", "[", "-3/4", 0, "]", 0, "]", 0, "]" ],
					"whole_score_data_count" : [ 1 ]
				}

			}
, 			{
				"box" : 				{
					"id" : "obj-32",
					"maxclass" : "message",
					"numinlets" : 2,
					"numoutlets" : 1,
					"outlettype" : [ "" ],
					"patching_rect" : [ 218.0, 887.0, 82.0, 22.0 ],
					"text" : "[9 8] [1/8 120]"
				}

			}
, 			{
				"box" : 				{
					"fontface" : 1,
					"fontsize" : 48.0,
					"id" : "obj-26",
					"maxclass" : "comment",
					"numinlets" : 1,
					"numoutlets" : 0,
					"patching_rect" : [ 12.0, 20.0, 617.0, 62.0 ],
					"presentation" : 1,
					"presentation_rect" : [ 7.0, 10.0, 617.0, 62.0 ],
					"text" : "Xenakis' Rhythmic Sieves"
				}

			}
, 			{
				"box" : 				{
					"id" : "obj-3",
					"maxclass" : "newobj",
					"numinlets" : 2,
					"numoutlets" : 1,
					"outlettype" : [ "bang" ],
					"patching_rect" : [ 330.0, 580.0, 35.0, 22.0 ],
					"text" : "del 3"
				}

			}
, 			{
				"box" : 				{
					"id" : "obj-10",
					"maxclass" : "newobj",
					"numinlets" : 1,
					"numoutlets" : 1,
					"outlettype" : [ "bang" ],
					"patching_rect" : [ 313.0, 419.0, 58.0, 22.0 ],
					"text" : "loadbang"
				}

			}
, 			{
				"box" : 				{
					"id" : "obj-9",
					"maxclass" : "message",
					"numinlets" : 2,
					"numoutlets" : 1,
					"outlettype" : [ "" ],
					"patching_rect" : [ 313.0, 448.0, 29.5, 22.0 ],
					"text" : "1"
				}

			}
, 			{
				"box" : 				{
					"id" : "obj-167",
					"maxclass" : "comment",
					"numinlets" : 1,
					"numoutlets" : 0,
					"patching_rect" : [ 239.0, 530.20001220703125, 70.0, 20.0 ],
					"presentation" : 1,
					"presentation_rect" : [ 462.0, 254.0, 70.0, 20.0 ],
					"text" : "intersection"
				}

			}
, 			{
				"box" : 				{
					"disabled" : [ 0, 0, 0, 0 ],
					"id" : "obj-162",
					"itemtype" : 0,
					"maxclass" : "radiogroup",
					"numinlets" : 1,
					"numoutlets" : 1,
					"offset" : 20,
					"outlettype" : [ "" ],
					"parameter_enable" : 0,
					"patching_rect" : [ 313.0, 486.0, 18.0, 82.0 ],
					"presentation" : 1,
					"presentation_rect" : [ 442.0, 209.0, 18.0, 82.0 ],
					"size" : 4,
					"value" : 1
				}

			}
, 			{
				"box" : 				{
					"id" : "obj-161",
					"maxclass" : "comment",
					"numinlets" : 1,
					"numoutlets" : 0,
					"patching_rect" : [ 190.0, 548.0, 119.0, 20.0 ],
					"presentation" : 1,
					"presentation_rect" : [ 462.0, 271.0, 119.0, 20.0 ],
					"text" : "symmetric difference"
				}

			}
, 			{
				"box" : 				{
					"id" : "obj-159",
					"maxclass" : "comment",
					"numinlets" : 1,
					"numoutlets" : 0,
					"patching_rect" : [ 271.0, 508.0, 38.0, 20.0 ],
					"presentation" : 1,
					"presentation_rect" : [ 462.0, 232.0, 38.0, 20.0 ],
					"text" : "union"
				}

			}
, 			{
				"box" : 				{
					"id" : "obj-157",
					"maxclass" : "comment",
					"numinlets" : 1,
					"numoutlets" : 0,
					"patching_rect" : [ 287.0, 486.0, 22.0, 20.0 ],
					"presentation" : 1,
					"presentation_rect" : [ 462.0, 209.0, 22.0, 20.0 ],
					"text" : "off"
				}

			}
, 			{
				"box" : 				{
					"id" : "obj-153",
					"maxclass" : "newobj",
					"numinlets" : 4,
					"numoutlets" : 1,
					"outlettype" : [ "" ],
					"patching_rect" : [ 301.0, 635.0, 103.0, 22.0 ],
					"text" : "switch 3"
				}

			}
, 			{
				"box" : 				{
					"id" : "obj-142",
					"maxclass" : "comment",
					"numinlets" : 1,
					"numoutlets" : 0,
					"patching_rect" : [ 578.0, 955.0, 38.0, 20.0 ],
					"presentation" : 1,
					"presentation_rect" : [ 139.0, 536.0, 38.0, 20.0 ],
					"text" : "zoom"
				}

			}
, 			{
				"box" : 				{
					"id" : "obj-143",
					"maxclass" : "message",
					"numinlets" : 2,
					"numoutlets" : 1,
					"outlettype" : [ "" ],
					"patching_rect" : [ 618.0, 987.0, 57.0, 22.0 ],
					"text" : "zoom $1"
				}

			}
, 			{
				"box" : 				{
					"id" : "obj-144",
					"maxclass" : "number",
					"numinlets" : 1,
					"numoutlets" : 2,
					"outlettype" : [ "", "bang" ],
					"parameter_enable" : 0,
					"patching_rect" : [ 618.0, 955.0, 50.0, 22.0 ],
					"presentation" : 1,
					"presentation_rect" : [ 141.0, 558.0, 50.0, 22.0 ]
				}

			}
, 			{
				"box" : 				{
					"id" : "obj-141",
					"maxclass" : "message",
					"numinlets" : 2,
					"numoutlets" : 1,
					"outlettype" : [ "" ],
					"patching_rect" : [ 262.0, 1081.0, 35.0, 22.0 ],
					"presentation" : 1,
					"presentation_rect" : [ 95.0, 558.0, 35.0, 22.0 ],
					"text" : "clear"
				}

			}
, 			{
				"box" : 				{
					"id" : "obj-138",
					"maxclass" : "newobj",
					"numinlets" : 2,
					"numoutlets" : 3,
					"outlettype" : [ "", "", "" ],
					"patching_rect" : [ 478.0, 604.0, 57.0, 22.0 ],
					"saved_object_attributes" : 					{
						"versionnumber" : 80100
					}
,
					"text" : "bach.thin"
				}

			}
, 			{
				"box" : 				{
					"fontsize" : 20.0,
					"id" : "obj-136",
					"maxclass" : "comment",
					"numinlets" : 1,
					"numoutlets" : 0,
					"patching_rect" : [ 920.20001220703125, 145.0, 101.0, 29.0 ],
					"presentation" : 1,
					"presentation_rect" : [ 231.0, 174.0, 101.0, 29.0 ],
					"text" : "Modulus 2"
				}

			}
, 			{
				"box" : 				{
					"id" : "obj-135",
					"maxclass" : "comment",
					"numinlets" : 1,
					"numoutlets" : 0,
					"patching_rect" : [ 113.0, 681.20001220703125, 38.0, 20.0 ],
					"presentation" : 1,
					"presentation_rect" : [ 148.0, 309.0, 38.0, 20.0 ],
					"text" : "zoom"
				}

			}
, 			{
				"box" : 				{
					"fontsize" : 20.0,
					"id" : "obj-132",
					"maxclass" : "comment",
					"numinlets" : 1,
					"numoutlets" : 0,
					"patching_rect" : [ 478.0, 97.0, 101.0, 29.0 ],
					"presentation" : 1,
					"presentation_rect" : [ 44.0, 174.0, 101.0, 29.0 ],
					"text" : "Modulus 1"
				}

			}
, 			{
				"box" : 				{
					"id" : "obj-130",
					"maxclass" : "message",
					"numinlets" : 2,
					"numoutlets" : 1,
					"outlettype" : [ "" ],
					"patching_rect" : [ 68.0, 776.0, 175.0, 22.0 ],
					"text" : "select all, legato, clearselection"
				}

			}
, 			{
				"box" : 				{
					"id" : "obj-128",
					"maxclass" : "message",
					"numinlets" : 2,
					"numoutlets" : 1,
					"outlettype" : [ "" ],
					"patching_rect" : [ 264.0, 1050.0, 31.0, 22.0 ],
					"presentation" : 1,
					"presentation_rect" : [ 62.0, 558.0, 31.0, 22.0 ],
					"text" : "stop"
				}

			}
, 			{
				"box" : 				{
					"id" : "obj-126",
					"maxclass" : "message",
					"numinlets" : 2,
					"numoutlets" : 1,
					"outlettype" : [ "" ],
					"patching_rect" : [ 264.0, 1017.0, 31.0, 22.0 ],
					"presentation" : 1,
					"presentation_rect" : [ 21.0, 558.0, 31.0, 22.0 ],
					"text" : "play"
				}

			}
, 			{
				"box" : 				{
					"id" : "obj-123",
					"maxclass" : "message",
					"numinlets" : 2,
					"numoutlets" : 1,
					"outlettype" : [ "" ],
					"patching_rect" : [ 218.0, 854.0, 54.0, 22.0 ],
					"presentation" : 1,
					"presentation_rect" : [ 21.0, 504.0, 54.0, 22.0 ],
					"text" : "quantize"
				}

			}
, 			{
				"box" : 				{
					"id" : "obj-115",
					"maxclass" : "newobj",
					"numinlets" : 3,
					"numoutlets" : 2,
					"outlettype" : [ "", "" ],
					"patching_rect" : [ 309.666656494140625, 979.0, 245.0, 22.0 ],
					"saved_object_attributes" : 					{
						"versionnumber" : 80102
					}
,
					"text" : "bach.quantize @minimalunits 1/12 1/20 1/32"
				}

			}
, 			{
				"box" : 				{
					"id" : "obj-108",
					"maxclass" : "message",
					"numinlets" : 2,
					"numoutlets" : 1,
					"outlettype" : [ "" ],
					"patching_rect" : [ 106.0, 214.0, 32.0, 22.0 ],
					"presentation" : 1,
					"presentation_rect" : [ 198.0, 119.0, 32.0, 22.0 ],
					"text" : "1/32"
				}

			}
, 			{
				"box" : 				{
					"id" : "obj-106",
					"maxclass" : "message",
					"numinlets" : 2,
					"numoutlets" : 1,
					"outlettype" : [ "" ],
					"patching_rect" : [ 54.0, 214.0, 29.5, 22.0 ],
					"text" : "125"
				}

			}
, 			{
				"box" : 				{
					"id" : "obj-104",
					"maxclass" : "message",
					"numinlets" : 2,
					"numoutlets" : 1,
					"outlettype" : [ "" ],
					"patching_rect" : [ 103.0, 99.0, 29.5, 22.0 ],
					"presentation" : 1,
					"presentation_rect" : [ 45.0, 119.0, 29.5, 22.0 ],
					"text" : "1/2"
				}

			}
, 			{
				"box" : 				{
					"id" : "obj-102",
					"maxclass" : "message",
					"numinlets" : 2,
					"numoutlets" : 1,
					"outlettype" : [ "" ],
					"patching_rect" : [ 54.0, 94.0, 35.0, 22.0 ],
					"text" : "2000"
				}

			}
, 			{
				"box" : 				{
					"id" : "obj-100",
					"maxclass" : "message",
					"numinlets" : 2,
					"numoutlets" : 1,
					"outlettype" : [ "" ],
					"patching_rect" : [ 106.0, 182.0, 32.0, 22.0 ],
					"presentation" : 1,
					"presentation_rect" : [ 156.0, 119.0, 32.0, 22.0 ],
					"text" : "1/16"
				}

			}
, 			{
				"box" : 				{
					"id" : "obj-98",
					"maxclass" : "message",
					"numinlets" : 2,
					"numoutlets" : 1,
					"outlettype" : [ "" ],
					"patching_rect" : [ 106.0, 156.0, 29.5, 22.0 ],
					"presentation" : 1,
					"presentation_rect" : [ 118.0, 119.0, 29.5, 22.0 ],
					"text" : "1/8"
				}

			}
, 			{
				"box" : 				{
					"id" : "obj-94",
					"maxclass" : "message",
					"numinlets" : 2,
					"numoutlets" : 1,
					"outlettype" : [ "" ],
					"patching_rect" : [ 103.0, 126.0, 29.5, 22.0 ],
					"presentation" : 1,
					"presentation_rect" : [ 81.0, 119.0, 29.5, 22.0 ],
					"text" : "1/4"
				}

			}
, 			{
				"box" : 				{
					"id" : "obj-92",
					"maxclass" : "message",
					"numinlets" : 2,
					"numoutlets" : 1,
					"outlettype" : [ "" ],
					"patching_rect" : [ 54.0, 182.0, 29.5, 22.0 ],
					"text" : "250"
				}

			}
, 			{
				"box" : 				{
					"id" : "obj-90",
					"maxclass" : "message",
					"numinlets" : 2,
					"numoutlets" : 1,
					"outlettype" : [ "" ],
					"patching_rect" : [ 54.0, 156.0, 29.5, 22.0 ],
					"text" : "500"
				}

			}
, 			{
				"box" : 				{
					"id" : "obj-88",
					"maxclass" : "message",
					"numinlets" : 2,
					"numoutlets" : 1,
					"outlettype" : [ "" ],
					"patching_rect" : [ 54.0, 126.0, 35.0, 22.0 ],
					"text" : "1000"
				}

			}
, 			{
				"box" : 				{
					"fontsize" : 20.0,
					"id" : "obj-86",
					"linecount" : 2,
					"maxclass" : "comment",
					"numinlets" : 1,
					"numoutlets" : 0,
					"patching_rect" : [ 315.0, 176.0, 107.0, 52.0 ],
					"presentation" : 1,
					"presentation_rect" : [ 44.0, 88.0, 172.0, 29.0 ],
					"text" : " global subdivision"
				}

			}
, 			{
				"box" : 				{
					"id" : "obj-84",
					"maxclass" : "number",
					"numinlets" : 1,
					"numoutlets" : 2,
					"outlettype" : [ "", "bang" ],
					"parameter_enable" : 0,
					"patching_rect" : [ 263.0, 176.0, 50.0, 22.0 ]
				}

			}
, 			{
				"box" : 				{
					"id" : "obj-82",
					"maxclass" : "message",
					"numinlets" : 2,
					"numoutlets" : 1,
					"outlettype" : [ "" ],
					"patching_rect" : [ 422.0, 726.0, 31.0, 22.0 ],
					"presentation" : 1,
					"presentation_rect" : [ 57.0, 331.0, 31.0, 22.0 ],
					"text" : "stop"
				}

			}
, 			{
				"box" : 				{
					"id" : "obj-80",
					"maxclass" : "message",
					"numinlets" : 2,
					"numoutlets" : 1,
					"outlettype" : [ "" ],
					"patching_rect" : [ 373.0, 726.0, 31.0, 22.0 ],
					"presentation" : 1,
					"presentation_rect" : [ 21.0, 331.0, 31.0, 22.0 ],
					"text" : "play"
				}

			}
, 			{
				"box" : 				{
					"id" : "obj-78",
					"maxclass" : "newobj",
					"numinlets" : 3,
					"numoutlets" : 2,
					"outlettype" : [ "", "int" ],
					"patching_rect" : [ 1007.4857177734375, 905.0, 95.0, 22.0 ],
					"text" : "bach.ezmidiplay"
				}

			}
, 			{
				"box" : 				{
					"id" : "obj-77",
					"maxclass" : "message",
					"numinlets" : 2,
					"numoutlets" : 1,
					"outlettype" : [ "" ],
					"patching_rect" : [ 521.5, 726.0, 35.0, 22.0 ],
					"presentation" : 1,
					"presentation_rect" : [ 90.0, 331.0, 35.0, 22.0 ],
					"text" : "clear"
				}

			}
, 			{
				"box" : 				{
					"id" : "obj-75",
					"maxclass" : "newobj",
					"numinlets" : 1,
					"numoutlets" : 1,
					"outlettype" : [ "" ],
					"patching_rect" : [ 301.0, 676.0, 64.0, 22.0 ],
					"saved_object_attributes" : 					{
						"versionnumber" : 80100
					}
,
					"text" : "bach.wrap"
				}

			}
, 			{
				"box" : 				{
					"id" : "obj-74",
					"maxclass" : "newobj",
					"numinlets" : 2,
					"numoutlets" : 1,
					"outlettype" : [ "" ],
					"patching_rect" : [ 478.0, 559.0, 122.0, 22.0 ],
					"saved_object_attributes" : 					{
						"versionnumber" : 80100
					}
,
					"text" : "bach.join @triggers 0"
				}

			}
, 			{
				"box" : 				{
					"id" : "obj-57",
					"maxclass" : "number",
					"minimum" : 1,
					"numinlets" : 1,
					"numoutlets" : 2,
					"outlettype" : [ "", "bang" ],
					"parameter_enable" : 0,
					"patching_rect" : [ 1075.0, 188.0, 32.0, 22.0 ],
					"presentation" : 1,
					"presentation_rect" : [ 231.0, 208.0, 50.0, 22.0 ]
				}

			}
, 			{
				"box" : 				{
					"fontname" : "Arial",
					"fontsize" : 12.0,
					"id" : "obj-59",
					"maxclass" : "comment",
					"numinlets" : 1,
					"numoutlets" : 0,
					"patching_rect" : [ 1109.0, 188.0, 111.0, 20.0 ],
					"presentation" : 1,
					"presentation_rect" : [ 283.0, 209.0, 111.0, 20.0 ],
					"text" : "how many attacks?"
				}

			}
, 			{
				"box" : 				{
					"id" : "obj-60",
					"maxclass" : "comment",
					"numinlets" : 1,
					"numoutlets" : 0,
					"patching_rect" : [ 1253.0, 275.0, 54.0, 20.0 ],
					"presentation" : 1,
					"presentation_rect" : [ 283.0, 241.0, 54.0, 20.0 ],
					"text" : "modulus"
				}

			}
, 			{
				"box" : 				{
					"id" : "obj-61",
					"maxclass" : "newobj",
					"numinlets" : 2,
					"numoutlets" : 1,
					"outlettype" : [ "int" ],
					"patching_rect" : [ 942.0, 345.399993896484375, 33.0, 22.0 ],
					"text" : "* $i1"
				}

			}
, 			{
				"box" : 				{
					"id" : "obj-62",
					"maxclass" : "number",
					"numinlets" : 1,
					"numoutlets" : 2,
					"outlettype" : [ "", "bang" ],
					"parameter_enable" : 0,
					"patching_rect" : [ 1201.0, 274.0, 50.0, 22.0 ],
					"presentation" : 1,
					"presentation_rect" : [ 231.0, 241.0, 50.0, 22.0 ]
				}

			}
, 			{
				"box" : 				{
					"id" : "obj-63",
					"maxclass" : "comment",
					"numinlets" : 1,
					"numoutlets" : 0,
					"patching_rect" : [ 1154.0, 376.0, 97.0, 20.0 ],
					"presentation" : 1,
					"presentation_rect" : [ 283.0, 273.0, 97.0, 20.0 ],
					"text" : "offset (subscript)"
				}

			}
, 			{
				"box" : 				{
					"id" : "obj-65",
					"maxclass" : "number",
					"numinlets" : 1,
					"numoutlets" : 2,
					"outlettype" : [ "", "bang" ],
					"parameter_enable" : 0,
					"patching_rect" : [ 1102.0, 375.0, 50.0, 22.0 ],
					"presentation" : 1,
					"presentation_rect" : [ 231.0, 272.0, 50.0, 22.0 ]
				}

			}
, 			{
				"box" : 				{
					"id" : "obj-66",
					"maxclass" : "newobj",
					"numinlets" : 2,
					"numoutlets" : 1,
					"outlettype" : [ "int" ],
					"patching_rect" : [ 944.0, 415.20001220703125, 35.0, 22.0 ],
					"text" : "+ $i1"
				}

			}
, 			{
				"box" : 				{
					"fontname" : "Arial",
					"fontsize" : 13.0,
					"id" : "obj-67",
					"maxclass" : "newobj",
					"numinlets" : 2,
					"numoutlets" : 1,
					"outlettype" : [ "int" ],
					"patching_rect" : [ 942.0, 383.20001220703125, 46.0, 23.0 ],
					"text" : "* 1000"
				}

			}
, 			{
				"box" : 				{
					"fontname" : "Arial",
					"fontsize" : 13.0,
					"id" : "obj-68",
					"maxclass" : "newobj",
					"numinlets" : 1,
					"numoutlets" : 2,
					"outlettype" : [ "bang", "" ],
					"patching_rect" : [ 910.0, 282.0, 51.0, 23.0 ],
					"text" : "t b l"
				}

			}
, 			{
				"box" : 				{
					"fontname" : "Arial",
					"fontsize" : 13.0,
					"id" : "obj-69",
					"maxclass" : "newobj",
					"numinlets" : 3,
					"numoutlets" : 1,
					"outlettype" : [ "" ],
					"patching_rect" : [ 911.0, 449.20001220703125, 83.0, 23.0 ],
					"saved_object_attributes" : 					{
						"versionnumber" : 80100
					}
,
					"text" : "bach.collect"
				}

			}
, 			{
				"box" : 				{
					"fontname" : "Arial",
					"fontsize" : 13.0,
					"id" : "obj-70",
					"maxclass" : "newobj",
					"numinlets" : 2,
					"numoutlets" : 2,
					"outlettype" : [ "", "" ],
					"patching_rect" : [ 910.0, 252.0, 66.0, 23.0 ],
					"text" : "route text"
				}

			}
, 			{
				"box" : 				{
					"fontname" : "Arial",
					"fontsize" : 13.0,
					"id" : "obj-71",
					"maxclass" : "newobj",
					"numinlets" : 2,
					"numoutlets" : 3,
					"outlettype" : [ "", "", "" ],
					"patching_rect" : [ 942.0, 312.0, 103.0, 23.0 ],
					"saved_object_attributes" : 					{
						"versionnumber" : 80100
					}
,
					"text" : "bach.iter @out t"
				}

			}
, 			{
				"box" : 				{
					"fontname" : "Arial",
					"fontsize" : 13.0,
					"id" : "obj-73",
					"linecount" : 2,
					"maxclass" : "textedit",
					"numinlets" : 1,
					"numoutlets" : 4,
					"outlettype" : [ "", "int", "", "" ],
					"parameter_enable" : 0,
					"patching_rect" : [ 910.0, 210.0, 121.0, 30.0 ],
					"text" : "0 1 2 3 4 5 6 7 8 9 10 11 12 13 14 15"
				}

			}
, 			{
				"box" : 				{
					"id" : "obj-12",
					"maxclass" : "number",
					"minimum" : 1,
					"numinlets" : 1,
					"numoutlets" : 2,
					"outlettype" : [ "", "bang" ],
					"parameter_enable" : 0,
					"patching_rect" : [ 643.0, 193.0, 32.0, 22.0 ],
					"presentation" : 1,
					"presentation_rect" : [ 44.0, 208.0, 56.0, 22.0 ]
				}

			}
, 			{
				"box" : 				{
					"fontname" : "Arial",
					"fontsize" : 12.0,
					"id" : "obj-54",
					"maxclass" : "comment",
					"numinlets" : 1,
					"numoutlets" : 0,
					"patching_rect" : [ 677.0, 193.0, 111.0, 20.0 ],
					"presentation" : 1,
					"presentation_rect" : [ 102.0, 209.0, 111.0, 20.0 ],
					"text" : "how many attacks?"
				}

			}
, 			{
				"box" : 				{
					"id" : "obj-52",
					"maxclass" : "message",
					"numinlets" : 2,
					"numoutlets" : 1,
					"outlettype" : [ "" ],
					"patching_rect" : [ 153.0, 713.20001220703125, 57.0, 22.0 ],
					"text" : "zoom $1"
				}

			}
, 			{
				"box" : 				{
					"id" : "obj-49",
					"maxclass" : "number",
					"numinlets" : 1,
					"numoutlets" : 2,
					"outlettype" : [ "", "bang" ],
					"parameter_enable" : 0,
					"patching_rect" : [ 153.0, 681.20001220703125, 50.0, 22.0 ],
					"presentation" : 1,
					"presentation_rect" : [ 148.0, 331.0, 50.0, 22.0 ]
				}

			}
, 			{
				"box" : 				{
					"id" : "obj-45",
					"maxclass" : "comment",
					"numinlets" : 1,
					"numoutlets" : 0,
					"patching_rect" : [ 821.0, 280.0, 54.0, 20.0 ],
					"presentation" : 1,
					"presentation_rect" : [ 96.0, 242.0, 54.0, 20.0 ],
					"text" : "modulus"
				}

			}
, 			{
				"box" : 				{
					"id" : "obj-43",
					"maxclass" : "newobj",
					"numinlets" : 2,
					"numoutlets" : 1,
					"outlettype" : [ "int" ],
					"patching_rect" : [ 512.5, 352.399993896484375, 33.0, 22.0 ],
					"text" : "* $i1"
				}

			}
, 			{
				"box" : 				{
					"id" : "obj-42",
					"maxclass" : "number",
					"numinlets" : 1,
					"numoutlets" : 2,
					"outlettype" : [ "", "bang" ],
					"parameter_enable" : 0,
					"patching_rect" : [ 769.0, 279.0, 50.0, 22.0 ],
					"presentation" : 1,
					"presentation_rect" : [ 44.0, 241.0, 50.0, 22.0 ]
				}

			}
, 			{
				"box" : 				{
					"id" : "obj-40",
					"maxclass" : "comment",
					"numinlets" : 1,
					"numoutlets" : 0,
					"patching_rect" : [ 297.0, 99.0, 103.0, 20.0 ],
					"presentation" : 1,
					"presentation_rect" : [ 96.0, 273.0, 97.0, 20.0 ],
					"text" : "offset (subscript)"
				}

			}
, 			{
				"box" : 				{
					"id" : "obj-37",
					"maxclass" : "number",
					"numinlets" : 1,
					"numoutlets" : 2,
					"outlettype" : [ "", "bang" ],
					"parameter_enable" : 0,
					"patching_rect" : [ 249.0, 99.0, 50.0, 22.0 ],
					"presentation" : 1,
					"presentation_rect" : [ 44.0, 272.0, 50.0, 22.0 ]
				}

			}
, 			{
				"box" : 				{
					"id" : "obj-35",
					"maxclass" : "newobj",
					"numinlets" : 2,
					"numoutlets" : 1,
					"outlettype" : [ "int" ],
					"patching_rect" : [ 512.5, 422.20001220703125, 35.0, 22.0 ],
					"text" : "+ $i1"
				}

			}
, 			{
				"box" : 				{
					"id" : "obj-34",
					"maxclass" : "button",
					"numinlets" : 1,
					"numoutlets" : 1,
					"outlettype" : [ "bang" ],
					"parameter_enable" : 0,
					"patching_rect" : [ 301.20001220703125, 713.20001220703125, 24.0, 24.0 ]
				}

			}
, 			{
				"box" : 				{
					"fontname" : "Arial",
					"fontsize" : 13.0,
					"id" : "obj-20",
					"maxclass" : "newobj",
					"numinlets" : 2,
					"numoutlets" : 1,
					"outlettype" : [ "int" ],
					"patching_rect" : [ 512.5, 386.20001220703125, 46.0, 23.0 ],
					"text" : "* 1000"
				}

			}
, 			{
				"box" : 				{
					"fontname" : "Arial",
					"fontsize" : 13.0,
					"id" : "obj-8",
					"maxclass" : "newobj",
					"numinlets" : 1,
					"numoutlets" : 2,
					"outlettype" : [ "bang", "" ],
					"patching_rect" : [ 478.0, 287.0, 51.0, 23.0 ],
					"text" : "t b l"
				}

			}
, 			{
				"box" : 				{
					"fontname" : "Arial",
					"fontsize" : 13.0,
					"id" : "obj-7",
					"maxclass" : "newobj",
					"numinlets" : 3,
					"numoutlets" : 1,
					"outlettype" : [ "" ],
					"patching_rect" : [ 478.0, 486.0, 83.0, 23.0 ],
					"saved_object_attributes" : 					{
						"versionnumber" : 80100
					}
,
					"text" : "bach.collect"
				}

			}
, 			{
				"box" : 				{
					"fontname" : "Arial",
					"fontsize" : 13.0,
					"id" : "obj-21",
					"maxclass" : "newobj",
					"numinlets" : 2,
					"numoutlets" : 2,
					"outlettype" : [ "", "" ],
					"patching_rect" : [ 478.0, 257.0, 66.0, 23.0 ],
					"text" : "route text"
				}

			}
, 			{
				"box" : 				{
					"fontname" : "Arial",
					"fontsize" : 13.0,
					"id" : "obj-15",
					"maxclass" : "newobj",
					"numinlets" : 2,
					"numoutlets" : 3,
					"outlettype" : [ "", "", "" ],
					"patching_rect" : [ 510.0, 317.0, 103.0, 23.0 ],
					"saved_object_attributes" : 					{
						"versionnumber" : 80100
					}
,
					"text" : "bach.iter @out t"
				}

			}
, 			{
				"box" : 				{
					"id" : "obj-27",
					"maxclass" : "button",
					"numinlets" : 1,
					"numoutlets" : 1,
					"outlettype" : [ "bang" ],
					"parameter_enable" : 0,
					"patching_rect" : [ 478.0, 145.0, 20.0, 20.0 ]
				}

			}
, 			{
				"box" : 				{
					"fontname" : "Arial",
					"fontsize" : 13.0,
					"id" : "obj-28",
					"maxclass" : "textedit",
					"numinlets" : 1,
					"numoutlets" : 4,
					"outlettype" : [ "", "int", "", "" ],
					"parameter_enable" : 0,
					"patching_rect" : [ 478.0, 215.0, 121.0, 30.0 ],
					"text" : "0 1 2 3 4 5 6 7 8 9"
				}

			}
, 			{
				"box" : 				{
					"bwcompatibility" : 80100,
					"defaultnoteslots" : [ "null" ],
					"fontface" : 0,
					"fontname" : "Arial",
					"fontsize" : 12.0,
					"grid" : 1,
					"id" : "obj-13",
					"loop" : [ 0.0, 1000.0 ],
					"maxclass" : "bach.roll",
					"numgridsubdivisions" : 32,
					"numinlets" : 6,
					"numoutlets" : 8,
					"numvoices" : 1,
					"out" : "nnnnnnn",
					"outlettype" : [ "", "", "", "", "", "", "", "bang" ],
					"patching_rect" : [ 301.20001220703125, 753.79998779296875, 843.0, 134.666671752929688 ],
					"pitcheditrange" : [ "null" ],
					"presentation" : 1,
					"presentation_rect" : [ 21.0, 357.0, 843.0, 134.666671752929688 ],
					"rulermode" : 0,
					"stafflines" : [ 5 ],
					"textcolor" : [ 0.0, 0.0, 0.0, 1.0 ],
					"versionnumber" : 80300,
					"voicenames" : [ "[", "]" ],
					"voicespacing" : [ 0.0, 17.0 ],
					"whole_roll_data_0000000000" : [ "roll", "[", "slotinfo", "[", 1, "[", "name", "velocity envelope", "]", "[", "type", "function", "]", "[", "key", 0, "]", "[", "range", "_x_x_x_x_bach_float64_x_x_x_x_", 0, 0, "_x_x_x_x_bach_float64_x_x_x_x_", 0, 1080016896, "]", "[", "slope", "_x_x_x_x_bach_float64_x_x_x_x_", 0, 0, "]", "[", "representation", "]", "[", "grid", "]", "[", "ysnap", "]", "[", "domain", "_x_x_x_x_bach_float64_x_x_x_x_", 0, 0, "_x_x_x_x_bach_float64_x_x_x_x_", 0, 1072693248, "]", "[", "domainslope", "_x_x_x_x_bach_float64_x_x_x_x_", 0, 0, "]", "[", "temporalmode", "relative", "]", "[", "extend", 0, "]", "[", "width", "auto", "]", "[", "height", "auto", "]", "[", "copywhensplit", 0, "]", "[", "access", "readandwrite", "]", "[", "follownotehead", 0, "]", "]", "[", 2, "[", "name", "slot function", "]", "[", "type", "function", "]", "[", "key", 0, "]", "[", "range", "_x_x_x_x_bach_float64_x_x_x_x_", 0, 0, "_x_x_x_x_bach_float64_x_x_x_x_", 0, 1072693248, "]", "[", "slope", "_x_x_x_x_bach_float64_x_x_x_x_", 0, 0, "]", "[", "representation", "]", "[", "grid", "]", "[", "ysnap", "]", "[", "domain", "_x_x_x_x_bach_float64_x_x_x_x_", 0, 0, "_x_x_x_x_bach_float64_x_x_x_x_", 0, 1072693248, "]", "[", "domainslope", "_x_x_x_x_bach_float64_x_x_x_x_", 0, 0, "]", "[", "temporalmode", "relative", "]", "[", "extend", 0, "]", "[", "width", "auto", "]", "[", "height", "auto", "]", "[", "copywhensplit", 0, "]", "[", "access", "readandwrite", "]", "[", "follownotehead", 0, "]", "]", "[", 3, "[", "name", "slot intlist", "]", "[", "type", "intlist", "]", "[", "key", 0, "]", "[", "range", "_x_x_x_x_bach_float64_x_x_x_x_", 0, 0, "_x_x_x_x_bach_float64_x_x_x_x_", 0, 1080016896, "]", "[", "slope", "_x_x_x_x_bach_float64_x_x_x_x_", 0, 0, "]", "[", "representation", "]", "[", "default", "_x_x_x_x_bach_float64_x_x_x_x_", 0, 1078984704, "]", "[", "temporalmode", "none", "]", "[", "extend", 0, "]", "[", "width", "_x_x_x_x_bach_float64_x_x_x_x_", 0, 1079574528, "]", "[", "height", "auto", "]", "[", "copywhensplit", 1, "]", "[", "access", "readandwrite", "]", "[", "follownotehead", 0, "]", "]", "[", 4, "[", "name", "slot floatlist", "]", "[", "type", "floatlist", "]", "[", "key", 0, "]", "[", "range", "_x_x_x_x_bach_float64_x_x_x_x_", 0, 0, "_x_x_x_x_bach_float64_x_x_x_x_", 0, 1072693248, "]", "[", "slope", "_x_x_x_x_bach_float64_x_x_x_x_", 0, 0, "]", "[", "representation", "]", "[", "default", "_x_x_x_x_bach_float64_x_x_x_x_", 0, 0, "]", "[", "temporalmode", "none", "]", "[", "extend", 0, "]", "[", "width", "_x_x_x_x_bach_float64_x_x_x_x_", 0, 1079574528, "]", "[", "height", "auto", "]", "[", "copywhensplit", 1, "]", "[", "access", "readandwrite", "]", "[", "follownotehead", 0, "]", "]", "[", 5, "[", "name", "slot int", "]", "[", "type", "int", "]", "[", "key", 0, "]", "[", "range", "_x_x_x_x_bach_float64_x_x_x_x_", 0, 0, "_x_x_x_x_bach_float64_x_x_x_x_", 0, 1080016896, "]", "[", "slope", "_x_x_x_x_bach_float64_x_x_x_x_", 0, 0, "]", "[", "representation", "]", "[", "default", "_x_x_x_x_bach_float64_x_x_x_x_", 0, 1078984704, "]", "[", "temporalmode", "none", "]", "[", "extend", 0, "]", "[", "width", "_x_x_x_x_bach_float64_x_x_x_x_", 0, 1079574528, "]", "[", "height", "auto", "]", "[", "copywhensplit", 1, "]", "[", "access", "readandwrite", "]", "[", "follownotehead", 0, "]", "]", "[", 6, "[", "name", "slot float", "]", "[", "type", "float", "]", "[", "key", 0, "]", "[", "range", "_x_x_x_x_bach_float64_x_x_x_x_", 0, 0, "_x_x_x_x_bach_float64_x_x_x_x_", 0, 1072693248, "]", "[", "slope", "_x_x_x_x_bach_float64_x_x_x_x_", 0, 0, "]", "[", "representation", "]", "[", "default", "_x_x_x_x_bach_float64_x_x_x_x_", 0, 0, "]", "[", "temporalmode", "none", "]", "[", "extend", 0, "]", "[", "width", "_x_x_x_x_bach_float64_x_x_x_x_", 0, 1079574528, "]", "[", "height", "auto", "]", "[", "copywhensplit", 1, "]", "[", "access", "readandwrite", "]", "[", "follownotehead", 0, "]", "]", "[", 7, "[", "name", "slot text", "]", "[", "type", "text", "]", "[", "key", 0, "]", "[", "temporalmode", "none", "]", "[", "extend", 0, "]", "[", "width", "_x_x_x_x_bach_float64_x_x_x_x_", 0, 1079574528, "]", "[", "height", "auto", "]", "[", "copywhensplit", 0, "]", "[", "access", "readandwrite", "]", "[", "follownotehead", 0, "]", "]", "[", 8, "[", "name", "slot filelist", "]", "[", "type", "filelist", "]", "[", "key", 0, "]", "[", "temporalmode", "none", "]", "[", "extend", 0, "]", "[", "width", "_x_x_x_x_bach_float64_x_x_x_x_", 0, 1080213504, "]", "[", "height", "auto", "]", "[", "copywhensplit", 1, "]", "[", "access", "readandwrite", "]", "[", "follownotehead", 0, "]", "]", "[", 9, "[", "name", "slot spat", "]", "[", "type", "spat", "]", "[", "key", 0, "]", "[", "range", "_x_x_x_x_bach_float64_x_x_x_x_", 0, 0, "_x_x_x_x_bach_float64_x_x_x_x_", 0, 1076101120, "]", "[", "slope", "_x_x_x_x_bach_float64_x_x_x_x_", 0, 0, "]", "[", "representation", "]", "[", "temporalmode", "relative", "]", "[", "extend", 0, "]", "[", "width", "auto", "]", "[", "height", "auto", "]", "[", "copywhensplit", 0, "]", "[", "access", "readandwrite", "]", "[", "follownotehead", 0, "]", "]", "[", 10, "[", "name", "slot llll", "]", "[", "type", "llll", "]", "[", "key", 0, "]", "[", "temporalmode", "none", "]", "[", "extend", 0, "]", "[", "width", "_x_x_x_x_bach_float64_x_x_x_x_", 0, 1079574528, "]", "[", "height", "auto", "]", "[", "copywhensplit", 0, "]", "[", "access", "readandwrite", "]", "[", "follownotehead", 0, "]", "]", "[", 11, "[", "name", "slot 11", "]", "[", "type", "none", "]", "[", "key", 0, "]", "[", "temporalmode", "none", "]", "[", "extend", 0, "]", "[", "width", "_x_x_x_x_bach_float64_x_x_x_x_", 0, 1079574528, "]", "[", "height", "auto", "]", "[", "copywhensplit", 1, "]", "[", "access", "readandwrite", "]", "[", "follownotehead", 0, "]", "]", "[", 12, "[", "name", "slot 12", "]", "[", "type", "none", "]", "[", "key", 0, "]", "[", "temporalmode", "none", "]", "[", "extend", 0, "]", "[", "width", "_x_x_x_x_bach_float64_x_x_x_x_", 0, 1079574528, "]", "[", "height", "auto", "]", "[", "copywhensplit", 1, "]", "[", "access", "readandwrite", "]", "[", "follownotehead", 0, "]", "]", "[", 13, "[", "name", "slot 13", "]", "[", "type", "none", "]", "[", "key", 0, "]", "[", "temporalmode", "none", "]", "[", "extend", 0, "]", "[", "width", "_x_x_x_x_bach_float64_x_x_x_x_", 0, 1079574528, "]", "[", "height", "auto", "]", "[", "copywhensplit", 1, "]", "[", "access", "readandwrite", "]", "[", "follownotehead", 0, "]", "]", "[", 14, "[", "name", "slot 14", "]", "[", "type", "none", "]", "[", "key", 0, "]", "[", "temporalmode", "none", "]", "[", "extend", 0, "]", "[", "width", "_x_x_x_x_bach_float64_x_x_x_x_", 0, 1079574528, "]", "[", "height", "auto", "]", "[", "copywhensplit", 1, "]", "[", "access", "readandwrite", "]", "[", "follownotehead", 0, "]", "]", "[", 15, "[", "name", "slot 15", "]", "[", "type", "none", "]", "[", "key", 0, "]", "[", "temporalmode", "none", "]", "[", "extend", 0, "]", "[", "width", "_x_x_x_x_bach_float64_x_x_x_x_", 0, 1079574528, "]", "[", "height", "auto", "]", "[", "copywhensplit", 1, "]", "[", "access", "readandwrite", "]", "[", "follownotehead", 0, "]", "]", "[", 16, "[", "name", "slot 16", "]", "[", "type", "none", "]", "[", "key", 0, "]", "[", "temporalmode", "none", "]", "[", "extend", 0, "]", "[", "width", "_x_x_x_x_bach_float64_x_x_x_x_", 0, 1079574528, "]", "[", "height", "auto", "]", "[", "copywhensplit", 1, "]", "[", "access", "readandwrite", "]", "[", "follownotehead", 0, "]", "]", "[", 17, "[", "name", "slot 17", "]", "[", "type", "none", "]", "[", "key", 0, "]", "[", "temporalmode", "none", "]", "[", "extend", 0, "]", "[", "width", "_x_x_x_x_bach_float64_x_x_x_x_", 0, 1079574528, "]", "[", "height", "auto", "]", "[", "copywhensplit", 1, "]", "[", "access", "readandwrite", "]", "[", "follownotehead", 0, "]", "]", "[", 18, "[", "name", "slot 18", "]", "[", "type", "none", "]", "[", "key", 0, "]", "[", "temporalmode", "none", "]", "[", "extend", 0, "]", "[", "width", "_x_x_x_x_bach_float64_x_x_x_x_", 0, 1079574528, "]", "[", "height", "auto", "]", "[", "copywhensplit", 1, "]", "[", "access", "readandwrite", "]", "[", "follownotehead", 0, "]", "]", "[", 19, "[", "name", "slot 19", "]", "[", "type", "none", "]", "[", "key", 0, "]", "[", "temporalmode", "none", "]", "[", "extend", 0, "]", "[", "width", "_x_x_x_x_bach_float64_x_x_x_x_", 0, 1079574528, "]", "[", "height", "auto", "]", "[", "copywhensplit", 1, "]", "[", "access", "readandwrite", "]", "[", "follownotehead", 0, "]", "]", "[", 20, "[", "name", "dynamics", "]", "[", "type", "dynamics", "]", "[", "key", "d", "]", "[", "temporalmode", "none", "]", "[", "extend", 0, "]", "[", "width", "_x_x_x_x_bach_float64_x_x_x_x_", 0, 1079738368, "]", "[", "height", "auto", "]", "[", "copywhensplit", 0, "]", "[", "access", "readandwrite", "]", "[", "follownotehead", 0, "]", "]", "[", 21, "[", "name", "lyrics", "]", "[", "type", "text", "]", "[", "key", "l", "]", "[", "temporalmode", "none", "]", "[", "extend", 0, "]", "[", "width", "_x_x_x_x_bach_float64_x_x_x_x_", 0, 1079574528, "]", "[", "height", "auto", "]", "[", "copywhensplit", 0, "]", "[", "access", "readandwrite", "]", "[", "follownotehead", 0, "]", "]", "[", 22, "[", "name", "articulations", "]", "[", "type", "articulations", "]", "[", "key", "a", "]", "[", "temporalmode", "none", "]", "[", "extend", 0, "]", "[", "width", "_x_x_x_x_bach_float64_x_x_x_x_", 0, 1079738368, "]", "[", "height", "auto", "]", "[", "copywhensplit", 1, "]", "[", "access", "readandwrite", "]", "[", "follownotehead", 0, "]", "]", "[", 23, "[", "name", "notehead", "]", "[", "type", "notehead", "]", "[", "key", "h", "]", "[", "temporalmode", "none", "]", "[", "extend", 0, "]", "[", "width", "_x_x_x_x_bach_float64_x_x_x_x_", 0, 1079738368, "]", "[", "height", "auto", "]", "[", "copywhensplit", 1, "]", "[", "access", "readandwrite", "]", "[", "follownotehead", 0, "]", "]", "[", 24, "[", "name", "annotation", "]", "[", "type", "text", "]", "[", "key", "t", "]", "[", "temporalmode", "none", "]", "[", "extend", 0, "]", "[", "width", "_x_x_x_x_bach_float64_x_x_x_x_", 0, 1079574528, "]", "[", "height", "auto", "]", "[", "copywhensplit", 1, "]", "[", "access", "readandwrite", "]", "[", "follownotehead", 0, "]", "]", "[", 25, "[", "name", "slot 25", "]", "[", "type", "none", "]", "[", "key", 0, "]", "[", "temporalmode", "none", "]", "[", "extend", 0, "]", "[", "width", "_x_x_x_x_bach_float64_x_x_x_x_", 0, 1079574528, "]", "[", "height", "auto", "]", "[", "copywhensplit", 1, "]", "[", "access", "readandwrite", "]", "[", "follownotehead", 0, "]", "]", "[", 26, "[", "name", "slot 26", "]", "[", "type", "none", "]", "[", "key", 0, "]", "[", "temporalmode", "none", "]", "[", "extend", 0, "]", "[", "width", "_x_x_x_x_bach_float64_x_x_x_x_", 0, 1079574528, "]", "[", "height", "auto", "]", "[", "copywhensplit", 1, "]", "[", "access", "readandwrite", "]", "[", "follownotehead", 0, "]", "]", "[", 27, "[", "name", "slot 27", "]", "[", "type", "none", "]", "[", "key", 0, "]", "[", "temporalmode", "none", "]", "[", "extend", 0, "]", "[", "width", "_x_x_x_x_bach_float64_x_x_x_x_", 0, 1079574528, "]", "[", "height", "auto", "]", "[", "copywhensplit", 1, "]", "[", "access", "readandwrite", "]", "[", "follownotehead", 0, "]", "]", "[", 28, "[", "name", "slot 28", "]", "[", "type", "none", "]", "[", "key", 0, "]", "[", "temporalmode", "none", "]", "[", "extend", 0, "]", "[", "width", "_x_x_x_x_bach_float64_x_x_x_x_", 0, 1079574528, "]", "[", "height", "auto", "]", "[", "copywhensplit", 1, "]", "[", "access", "readandwrite", "]", "[", "follownotehead", 0, "]", "]", "[", 29, "[", "name", "slot 29", "]", "[", "type", "none", "]", "[", "key", 0, "]", "[", "temporalmode", "none", "]", "[", "extend", 0, "]", "[", "width", "_x_x_x_x_bach_float64_x_x_x_x_", 0, 1079574528, "]", "[", "height", "auto", "]", "[", "copywhensplit", 1, "]", "[", "access", "readandwrite", "]", "[", "follownotehead", 0, "]", "]", "[", 30, "[", "name", "slot 30", "]", "[", "type", "none", "]", "[", "key", 0, "]", "[", "temporalmode", "none", "]", "[", "extend", 0, "]", "[", "width", "_x_x_x_x_bach_float64_x_x_x_x_", 0, 1079574528, "]", "[", "height", "auto", "]", "[", "copywhensplit", 1, "]", "[", "access", "readandwrite", "]", "[", "follownotehead", 0, "]", "]", "]", "[", "commands", "[", 1, "[", "name", "command", "]", "[", "note", "note", "]", "[", "chord", "chord", "]", "[", "rest", "rest", "]", "[", "marker", "marker", "]", "[", "start", "none", "]", "[", "end", "none", "]", "[", "key", 0, "]", "]", "[", 2, "[", "name", "command", "]", "[", "note", "note", "]", "[", "chord", "chord", "]", "[", "rest", "rest", "]", "[", "marker", "marker", "]", "[", "start", "none", "]", "[", "end", "none", "]", "[", "key", 0, "]", "]", "[", 3, "[", "name", "command", "]", "[", "note", "note", "]", "[", "chord", "chord", "]", "[", "rest", "rest", "]", "[", "marker", "marker", "]", "[", "start", "none", "]", "[", "end", "none", "]", "[", "key", 0, "]", "]", "[", 4, "[", "name", "command", "]", "[", "note", "note", "]", "[", "chord", "chord", "]", "[", "rest", "rest", "]", "[", "marker", "marker", "]", "[", "start", "none", "]", "[", "end", "none", "]", "[", "key", 0, "]", "]", "[", 5, "[", "name", "command", "]", "[", "note", "note", "]", "[", "chord", "chord", "]", "[", "rest", "rest", "]", "[", "marker", "marker", "]", "[", "start", "none", "]", "[", "end", "none", "]", "[", "key", 0, "]", "]", "]", "[", "groups", "]", "[", "markers", "]", "[", "midichannels", 1, "]", "[", "articulationinfo", "]", "[", "noteheadinfo", "]", "[", "[", "_x_x_x_x_bach_float64_x_x_x_x_", 0, 0, "[", "_x_x_x_x_bach_float64_x_x_x_x_", 0, 1085763584, "_x_x_x_x_bach_float64_x_x_x_x_", 0, 1084267008, 100, 0, "]", 0, "]", "[", "_x_x_x_x_bach_float64_x_x_x_x_", 0, 1084267008, "[", "_x_x_x_x_bach_float64_x_x_x_x_", 0, 1085763584, "_x_x_x_x_bach_float64_x_x_x_x_", 0, 1082873856, 100, 0, "]", 0, "]", "[", "_x_x_x_x_bach_float64_x_x_x_x_", 0, 1084715008, "[", "_x_x_x_x_bach_float64_x_x_x_x_", 0, 1085763584, "_x_x_x_x_bach_float64_x_x_x_x_", 0, 1083410432, 100, 0, "]", 0, "]", "[", "_x_x_x_x_bach_float64_x_x_x_x_", 0, 1085315584, "[", "_x_x_x_x_bach_float64_x_x_x_x_", 0, 1085763584, "_x_x_x_x_bach_float64_x_x_x_x_", 0, 1083922432, 100, 0, "]", 0, "]", "[", "_x_x_x_x_bach_float64_x_x_x_x_", 0, 1085763584, "[", "_x_x_x_x_bach_float64_x_x_x_x_", 0, 1085763584, "_x_x_x_x_bach_float64_x_x_x_x_", 0, 1081569280, 100, 0, "]", 0, "]", "[", "_x_x_x_x_bach_float64_x_x_x_x_", 0, 1085859584, "[", "_x_x_x_x_bach_float64_x_x_x_x_", 0, 1085763584, "_x_x_x_x_bach_float64_x_x_x_x_", 0, 1084267008, 100, 0, "]", 0, "]", "[", "_x_x_x_x_bach_float64_x_x_x_x_", 0, 1086364160, "[", "_x_x_x_x_bach_float64_x_x_x_x_", 0, 1085763584, "_x_x_x_x_bach_float64_x_x_x_x_", 0, 1082081280, 100, 0, "]", 0, "]", "[", "_x_x_x_x_bach_float64_x_x_x_x_", 0, 1086428160, "[", "_x_x_x_x_bach_float64_x_x_x_x_", 0, 1085763584, "_x_x_x_x_bach_float64_x_x_x_x_", 0, 1083794432, 100, 0, "]", 0, "]", "[", "_x_x_x_x_bach_float64_x_x_x_x_", 0, 1086636160, "[", "_x_x_x_x_bach_float64_x_x_x_x_", 0, 1085763584, "_x_x_x_x_bach_float64_x_x_x_x_", 0, 1083538432, 100, 0, "]", 0, "]", "[", "_x_x_x_x_bach_float64_x_x_x_x_", 0, 1086812160, "[", "_x_x_x_x_bach_float64_x_x_x_x_", 0, 1085763584, "_x_x_x_x_bach_float64_x_x_x_x_", 0, 1082617856, 100, 0, "]", 0, "]", "[", "_x_x_x_x_bach_float64_x_x_x_x_", 0, 1086908160, "[", "_x_x_x_x_bach_float64_x_x_x_x_", 0, 1085763584, "_x_x_x_x_bach_float64_x_x_x_x_", 0, 1084267008, 100, 0, "]", 0, "]", "[", "_x_x_x_x_bach_float64_x_x_x_x_", 0, 1087180160, "[", "_x_x_x_x_bach_float64_x_x_x_x_", 0, 1085763584, "_x_x_x_x_bach_float64_x_x_x_x_", 0, 1079984128, 100, 0, "]", 0, "]", "[", "_x_x_x_x_bach_float64_x_x_x_x_", 0, 1087196160, "[", "_x_x_x_x_bach_float64_x_x_x_x_", 0, 1085763584, "_x_x_x_x_bach_float64_x_x_x_x_", 0, 1084178432, 100, 0, "]", 0, "]", "[", "_x_x_x_x_bach_float64_x_x_x_x_", 0, 1087412736, "[", "_x_x_x_x_bach_float64_x_x_x_x_", 0, 1085763584, "_x_x_x_x_bach_float64_x_x_x_x_", 0, 1083129856, 100, 0, "]", 0, "]", "[", "_x_x_x_x_bach_float64_x_x_x_x_", 0, 1087476736, "[", "_x_x_x_x_bach_float64_x_x_x_x_", 0, 1085763584, "_x_x_x_x_bach_float64_x_x_x_x_", 0, 1083282432, 100, 0, "]", 0, "]", "[", "_x_x_x_x_bach_float64_x_x_x_x_", 0, 1087548736, "[", "_x_x_x_x_bach_float64_x_x_x_x_", 0, 1085763584, "_x_x_x_x_bach_float64_x_x_x_x_", 0, 1084050432, 100, 0, "]", 0, "]", "[", "_x_x_x_x_bach_float64_x_x_x_x_", 0, 1087668736, "[", "_x_x_x_x_bach_float64_x_x_x_x_", 0, 1085763584, "_x_x_x_x_bach_float64_x_x_x_x_", 0, 1084715008, 100, 0, "]", 0, "]", "[", "_x_x_x_x_bach_float64_x_x_x_x_", 0, 1087860736, "[", "_x_x_x_x_bach_float64_x_x_x_x_", 0, 1085763584, "_x_x_x_x_bach_float64_x_x_x_x_", 0, 1084715008, 100, 0, "]", 0, "]", "[", "_x_x_x_x_bach_float64_x_x_x_x_", 0, 1088052736, "[", "_x_x_x_x_bach_float64_x_x_x_x_", 0, 1085763584, "_x_x_x_x_bach_float64_x_x_x_x_", 0, 1084715008, 100, 0, "]", 0, "]", "[", "_x_x_x_x_bach_float64_x_x_x_x_", 0, 1088244736, "[", "_x_x_x_x_bach_float64_x_x_x_x_", 0, 1085763584, "_x_x_x_x_bach_float64_x_x_x_x_", 0, 1084715008, 100, 0, "]", 0, "]", "[", "_x_x_x_x_bach_float64_x_x_x_x_", 0, 1088429312, "[", "_x_x_x_x_bach_float64_x_x_x_x_", 0, 1085763584, "_x_x_x_x_bach_float64_x_x_x_x_", 0, 1084715008, 100, 0, "]", 0, "]", "[", "_x_x_x_x_bach_float64_x_x_x_x_", 0, 1088525312, "[", "_x_x_x_x_bach_float64_x_x_x_x_", 0, 1085763584, "_x_x_x_x_bach_float64_x_x_x_x_", 0, 1084715008, 100, 0, "]", 0, "]", "[", "_x_x_x_x_bach_float64_x_x_x_x_", 0, 1088621312, "[", "_x_x_x_x_bach_float64_x_x_x_x_", 0, 1085763584, "_x_x_x_x_bach_float64_x_x_x_x_", 0, 1084715008, 100, 0, "]", 0, "]", "[", "_x_x_x_x_bach_float64_x_x_x_x_", 0, 1088717312, "[", "_x_x_x_x_bach_float64_x_x_x_x_", 0, 1085763584, "_x_x_x_x_bach_float64_x_x_x_x_", 0, 1084715008, 100, 0, "]", 0, "]", "[", "_x_x_x_x_bach_float64_x_x_x_x_", 0, 1088813312, "[", "_x_x_x_x_bach_float64_x_x_x_x_", 0, 1085763584, "_x_x_x_x_bach_float64_x_x_x_x_", 0, 1082081280, 100, 0, "]", 0, "]", 0, "]" ],
					"whole_roll_data_count" : [ 1 ],
					"zoom" : 11.0
				}

			}
, 			{
				"box" : 				{
					"angle" : 129.742190831045264,
					"grad1" : [ 0.870588235294118, 0.854901960784314, 0.850980392156863, 1.0 ],
					"grad2" : [ 0.423529411764706, 0.592156862745098, 0.435294117647059, 1.0 ],
					"id" : "obj-33",
					"maxclass" : "panel",
					"mode" : 1,
					"numinlets" : 1,
					"numoutlets" : 0,
					"patching_rect" : [ 38.0, 299.399993896484375, 128.0, 128.0 ],
					"presentation" : 1,
					"presentation_rect" : [ -1.0, 0.0, 1250.0, 757.0 ],
					"proportion" : 0.385381320576292,
					"pt1" : [ 0.904040404040404, 0.96969696969697 ],
					"pt2" : [ 0.156565656565657, 0.070707070707071 ]
				}

			}
 ],
		"lines" : [ 			{
				"patchline" : 				{
					"destination" : [ "obj-49", 0 ],
					"source" : [ "obj-1", 0 ]
				}

			}
, 			{
				"patchline" : 				{
					"destination" : [ "obj-9", 0 ],
					"source" : [ "obj-10", 0 ]
				}

			}
, 			{
				"patchline" : 				{
					"destination" : [ "obj-92", 0 ],
					"source" : [ "obj-100", 0 ]
				}

			}
, 			{
				"patchline" : 				{
					"destination" : [ "obj-84", 0 ],
					"source" : [ "obj-102", 0 ]
				}

			}
, 			{
				"patchline" : 				{
					"destination" : [ "obj-102", 0 ],
					"source" : [ "obj-104", 0 ]
				}

			}
, 			{
				"patchline" : 				{
					"destination" : [ "obj-84", 0 ],
					"source" : [ "obj-106", 0 ]
				}

			}
, 			{
				"patchline" : 				{
					"destination" : [ "obj-106", 0 ],
					"source" : [ "obj-108", 0 ]
				}

			}
, 			{
				"patchline" : 				{
					"destination" : [ "obj-36", 0 ],
					"source" : [ "obj-115", 0 ]
				}

			}
, 			{
				"patchline" : 				{
					"destination" : [ "obj-27", 0 ],
					"midpoints" : [ 648.000019311904907, 216.000006437301636 ],
					"order" : 1,
					"source" : [ "obj-12", 0 ]
				}

			}
, 			{
				"patchline" : 				{
					"destination" : [ "obj-50", 0 ],
					"order" : 0,
					"source" : [ "obj-12", 0 ]
				}

			}
, 			{
				"patchline" : 				{
					"destination" : [ "obj-13", 0 ],
					"order" : 0,
					"source" : [ "obj-123", 0 ]
				}

			}
, 			{
				"patchline" : 				{
					"destination" : [ "obj-32", 0 ],
					"order" : 1,
					"source" : [ "obj-123", 0 ]
				}

			}
, 			{
				"patchline" : 				{
					"destination" : [ "obj-36", 0 ],
					"source" : [ "obj-126", 0 ]
				}

			}
, 			{
				"patchline" : 				{
					"destination" : [ "obj-36", 0 ],
					"source" : [ "obj-128", 0 ]
				}

			}
, 			{
				"patchline" : 				{
					"destination" : [ "obj-115", 1 ],
					"source" : [ "obj-13", 0 ]
				}

			}
, 			{
				"patchline" : 				{
					"destination" : [ "obj-78", 0 ],
					"source" : [ "obj-13", 6 ]
				}

			}
, 			{
				"patchline" : 				{
					"destination" : [ "obj-13", 0 ],
					"source" : [ "obj-130", 0 ]
				}

			}
, 			{
				"patchline" : 				{
					"destination" : [ "obj-153", 1 ],
					"source" : [ "obj-138", 0 ]
				}

			}
, 			{
				"patchline" : 				{
					"destination" : [ "obj-36", 0 ],
					"source" : [ "obj-141", 0 ]
				}

			}
, 			{
				"patchline" : 				{
					"destination" : [ "obj-36", 0 ],
					"source" : [ "obj-143", 0 ]
				}

			}
, 			{
				"patchline" : 				{
					"destination" : [ "obj-143", 0 ],
					"source" : [ "obj-144", 0 ]
				}

			}
, 			{
				"patchline" : 				{
					"destination" : [ "obj-43", 0 ],
					"source" : [ "obj-15", 0 ]
				}

			}
, 			{
				"patchline" : 				{
					"destination" : [ "obj-7", 2 ],
					"source" : [ "obj-15", 2 ]
				}

			}
, 			{
				"patchline" : 				{
					"destination" : [ "obj-75", 0 ],
					"source" : [ "obj-153", 0 ]
				}

			}
, 			{
				"patchline" : 				{
					"destination" : [ "obj-108", 0 ],
					"source" : [ "obj-16", 0 ]
				}

			}
, 			{
				"patchline" : 				{
					"destination" : [ "obj-153", 0 ],
					"order" : 1,
					"source" : [ "obj-162", 0 ]
				}

			}
, 			{
				"patchline" : 				{
					"destination" : [ "obj-3", 0 ],
					"order" : 0,
					"source" : [ "obj-162", 0 ]
				}

			}
, 			{
				"patchline" : 				{
					"destination" : [ "obj-24", 0 ],
					"source" : [ "obj-17", 0 ]
				}

			}
, 			{
				"patchline" : 				{
					"destination" : [ "obj-57", 0 ],
					"source" : [ "obj-18", 0 ]
				}

			}
, 			{
				"patchline" : 				{
					"destination" : [ "obj-42", 0 ],
					"source" : [ "obj-19", 0 ]
				}

			}
, 			{
				"patchline" : 				{
					"destination" : [ "obj-35", 0 ],
					"source" : [ "obj-20", 0 ]
				}

			}
, 			{
				"patchline" : 				{
					"destination" : [ "obj-8", 0 ],
					"source" : [ "obj-21", 0 ]
				}

			}
, 			{
				"patchline" : 				{
					"destination" : [ "obj-62", 0 ],
					"source" : [ "obj-22", 0 ]
				}

			}
, 			{
				"patchline" : 				{
					"destination" : [ "obj-153", 2 ],
					"source" : [ "obj-23", 0 ]
				}

			}
, 			{
				"patchline" : 				{
					"destination" : [ "obj-5", 0 ],
					"disabled" : 1,
					"source" : [ "obj-23", 0 ]
				}

			}
, 			{
				"patchline" : 				{
					"destination" : [ "obj-35", 1 ],
					"source" : [ "obj-24", 0 ]
				}

			}
, 			{
				"patchline" : 				{
					"destination" : [ "obj-66", 1 ],
					"source" : [ "obj-25", 0 ]
				}

			}
, 			{
				"patchline" : 				{
					"destination" : [ "obj-28", 0 ],
					"order" : 1,
					"source" : [ "obj-27", 0 ]
				}

			}
, 			{
				"patchline" : 				{
					"destination" : [ "obj-73", 0 ],
					"order" : 0,
					"source" : [ "obj-27", 0 ]
				}

			}
, 			{
				"patchline" : 				{
					"destination" : [ "obj-21", 0 ],
					"source" : [ "obj-28", 0 ]
				}

			}
, 			{
				"patchline" : 				{
					"destination" : [ "obj-25", 0 ],
					"source" : [ "obj-29", 0 ]
				}

			}
, 			{
				"patchline" : 				{
					"destination" : [ "obj-27", 0 ],
					"source" : [ "obj-3", 0 ]
				}

			}
, 			{
				"patchline" : 				{
					"destination" : [ "obj-27", 0 ],
					"source" : [ "obj-31", 0 ]
				}

			}
, 			{
				"patchline" : 				{
					"destination" : [ "obj-115", 0 ],
					"source" : [ "obj-32", 0 ]
				}

			}
, 			{
				"patchline" : 				{
					"destination" : [ "obj-13", 0 ],
					"order" : 0,
					"source" : [ "obj-34", 0 ]
				}

			}
, 			{
				"patchline" : 				{
					"destination" : [ "obj-130", 0 ],
					"order" : 1,
					"source" : [ "obj-34", 0 ]
				}

			}
, 			{
				"patchline" : 				{
					"destination" : [ "obj-7", 1 ],
					"source" : [ "obj-35", 0 ]
				}

			}
, 			{
				"patchline" : 				{
					"destination" : [ "obj-78", 0 ],
					"source" : [ "obj-36", 7 ]
				}

			}
, 			{
				"patchline" : 				{
					"destination" : [ "obj-17", 0 ],
					"order" : 1,
					"source" : [ "obj-37", 0 ]
				}

			}
, 			{
				"patchline" : 				{
					"destination" : [ "obj-27", 0 ],
					"order" : 0,
					"source" : [ "obj-37", 0 ]
				}

			}
, 			{
				"patchline" : 				{
					"destination" : [ "obj-67", 1 ],
					"source" : [ "obj-38", 0 ]
				}

			}
, 			{
				"patchline" : 				{
					"destination" : [ "obj-29", 1 ],
					"source" : [ "obj-39", 0 ]
				}

			}
, 			{
				"patchline" : 				{
					"destination" : [ "obj-12", 0 ],
					"source" : [ "obj-4", 0 ]
				}

			}
, 			{
				"patchline" : 				{
					"destination" : [ "obj-27", 0 ],
					"order" : 1,
					"source" : [ "obj-42", 0 ]
				}

			}
, 			{
				"patchline" : 				{
					"destination" : [ "obj-43", 1 ],
					"order" : 0,
					"source" : [ "obj-42", 0 ]
				}

			}
, 			{
				"patchline" : 				{
					"destination" : [ "obj-20", 0 ],
					"source" : [ "obj-43", 0 ]
				}

			}
, 			{
				"patchline" : 				{
					"destination" : [ "obj-20", 1 ],
					"source" : [ "obj-44", 0 ]
				}

			}
, 			{
				"patchline" : 				{
					"destination" : [ "obj-153", 3 ],
					"source" : [ "obj-47", 0 ]
				}

			}
, 			{
				"patchline" : 				{
					"destination" : [ "obj-2", 0 ],
					"disabled" : 1,
					"source" : [ "obj-47", 0 ]
				}

			}
, 			{
				"patchline" : 				{
					"destination" : [ "obj-52", 0 ],
					"source" : [ "obj-49", 0 ]
				}

			}
, 			{
				"patchline" : 				{
					"destination" : [ "obj-28", 0 ],
					"source" : [ "obj-50", 0 ]
				}

			}
, 			{
				"patchline" : 				{
					"destination" : [ "obj-13", 0 ],
					"source" : [ "obj-52", 0 ]
				}

			}
, 			{
				"patchline" : 				{
					"destination" : [ "obj-27", 0 ],
					"order" : 1,
					"source" : [ "obj-57", 0 ]
				}

			}
, 			{
				"patchline" : 				{
					"destination" : [ "obj-85", 0 ],
					"order" : 0,
					"source" : [ "obj-57", 0 ]
				}

			}
, 			{
				"patchline" : 				{
					"destination" : [ "obj-67", 0 ],
					"source" : [ "obj-61", 0 ]
				}

			}
, 			{
				"patchline" : 				{
					"destination" : [ "obj-27", 0 ],
					"order" : 1,
					"source" : [ "obj-62", 0 ]
				}

			}
, 			{
				"patchline" : 				{
					"destination" : [ "obj-61", 1 ],
					"order" : 0,
					"source" : [ "obj-62", 0 ]
				}

			}
, 			{
				"patchline" : 				{
					"destination" : [ "obj-27", 0 ],
					"order" : 1,
					"source" : [ "obj-65", 0 ]
				}

			}
, 			{
				"patchline" : 				{
					"destination" : [ "obj-29", 0 ],
					"order" : 0,
					"source" : [ "obj-65", 0 ]
				}

			}
, 			{
				"patchline" : 				{
					"destination" : [ "obj-69", 1 ],
					"source" : [ "obj-66", 0 ]
				}

			}
, 			{
				"patchline" : 				{
					"destination" : [ "obj-66", 0 ],
					"source" : [ "obj-67", 0 ]
				}

			}
, 			{
				"patchline" : 				{
					"destination" : [ "obj-69", 0 ],
					"source" : [ "obj-68", 0 ]
				}

			}
, 			{
				"patchline" : 				{
					"destination" : [ "obj-71", 0 ],
					"source" : [ "obj-68", 1 ]
				}

			}
, 			{
				"patchline" : 				{
					"destination" : [ "obj-23", 1 ],
					"order" : 0,
					"source" : [ "obj-69", 0 ]
				}

			}
, 			{
				"patchline" : 				{
					"destination" : [ "obj-47", 1 ],
					"order" : 1,
					"source" : [ "obj-69", 0 ]
				}

			}
, 			{
				"patchline" : 				{
					"destination" : [ "obj-6", 0 ],
					"disabled" : 1,
					"source" : [ "obj-69", 0 ]
				}

			}
, 			{
				"patchline" : 				{
					"destination" : [ "obj-74", 1 ],
					"order" : 2,
					"source" : [ "obj-69", 0 ]
				}

			}
, 			{
				"patchline" : 				{
					"destination" : [ "obj-14", 0 ],
					"disabled" : 1,
					"source" : [ "obj-7", 0 ]
				}

			}
, 			{
				"patchline" : 				{
					"destination" : [ "obj-23", 0 ],
					"order" : 0,
					"source" : [ "obj-7", 0 ]
				}

			}
, 			{
				"patchline" : 				{
					"destination" : [ "obj-47", 0 ],
					"order" : 1,
					"source" : [ "obj-7", 0 ]
				}

			}
, 			{
				"patchline" : 				{
					"destination" : [ "obj-74", 0 ],
					"order" : 2,
					"source" : [ "obj-7", 0 ]
				}

			}
, 			{
				"patchline" : 				{
					"destination" : [ "obj-68", 0 ],
					"source" : [ "obj-70", 0 ]
				}

			}
, 			{
				"patchline" : 				{
					"destination" : [ "obj-61", 0 ],
					"source" : [ "obj-71", 0 ]
				}

			}
, 			{
				"patchline" : 				{
					"destination" : [ "obj-69", 2 ],
					"source" : [ "obj-71", 2 ]
				}

			}
, 			{
				"patchline" : 				{
					"destination" : [ "obj-70", 0 ],
					"source" : [ "obj-73", 0 ]
				}

			}
, 			{
				"patchline" : 				{
					"destination" : [ "obj-138", 0 ],
					"source" : [ "obj-74", 0 ]
				}

			}
, 			{
				"patchline" : 				{
					"destination" : [ "obj-13", 1 ],
					"order" : 0,
					"source" : [ "obj-75", 0 ]
				}

			}
, 			{
				"patchline" : 				{
					"destination" : [ "obj-34", 0 ],
					"order" : 1,
					"source" : [ "obj-75", 0 ]
				}

			}
, 			{
				"patchline" : 				{
					"destination" : [ "obj-13", 0 ],
					"source" : [ "obj-77", 0 ]
				}

			}
, 			{
				"patchline" : 				{
					"destination" : [ "obj-15", 0 ],
					"source" : [ "obj-8", 1 ]
				}

			}
, 			{
				"patchline" : 				{
					"destination" : [ "obj-7", 0 ],
					"source" : [ "obj-8", 0 ]
				}

			}
, 			{
				"patchline" : 				{
					"destination" : [ "obj-13", 0 ],
					"source" : [ "obj-80", 0 ]
				}

			}
, 			{
				"patchline" : 				{
					"destination" : [ "obj-13", 0 ],
					"source" : [ "obj-82", 0 ]
				}

			}
, 			{
				"patchline" : 				{
					"destination" : [ "obj-17", 1 ],
					"order" : 1,
					"source" : [ "obj-84", 0 ]
				}

			}
, 			{
				"patchline" : 				{
					"destination" : [ "obj-30", 0 ],
					"order" : 0,
					"source" : [ "obj-84", 0 ]
				}

			}
, 			{
				"patchline" : 				{
					"destination" : [ "obj-73", 0 ],
					"source" : [ "obj-85", 0 ]
				}

			}
, 			{
				"patchline" : 				{
					"destination" : [ "obj-84", 0 ],
					"source" : [ "obj-88", 0 ]
				}

			}
, 			{
				"patchline" : 				{
					"destination" : [ "obj-162", 0 ],
					"source" : [ "obj-9", 0 ]
				}

			}
, 			{
				"patchline" : 				{
					"destination" : [ "obj-84", 0 ],
					"source" : [ "obj-90", 0 ]
				}

			}
, 			{
				"patchline" : 				{
					"destination" : [ "obj-84", 0 ],
					"source" : [ "obj-92", 0 ]
				}

			}
, 			{
				"patchline" : 				{
					"destination" : [ "obj-88", 0 ],
					"source" : [ "obj-94", 0 ]
				}

			}
, 			{
				"patchline" : 				{
					"destination" : [ "obj-90", 0 ],
					"source" : [ "obj-98", 0 ]
				}

			}
 ],
		"dependency_cache" : [ 			{
				"name" : "bach.approx.maxpat",
				"bootpath" : "~/Documents/Max 8/Packages/bach/patchers",
				"patcherrelativepath" : "../../../../Documents/Max 8/Packages/bach/patchers",
				"type" : "JSON",
				"implicit" : 1
			}
, 			{
				"name" : "bach.args.mxe64",
				"type" : "mx64"
			}
, 			{
				"name" : "bach.collect.mxe64",
				"type" : "mx64"
			}
, 			{
				"name" : "bach.eq.mxe64",
				"type" : "mx64"
			}
, 			{
				"name" : "bach.expr.mxe64",
				"type" : "mx64"
			}
, 			{
				"name" : "bach.ezmidiplay.maxpat",
				"bootpath" : "~/Documents/Max 8/Packages/bach/patchers",
				"patcherrelativepath" : "../../../../Documents/Max 8/Packages/bach/patchers",
				"type" : "JSON",
				"implicit" : 1
			}
, 			{
				"name" : "bach.filter.maxpat",
				"bootpath" : "~/Documents/Max 8/Packages/bach/patchers",
				"patcherrelativepath" : "../../../../Documents/Max 8/Packages/bach/patchers",
				"type" : "JSON",
				"implicit" : 1
			}
, 			{
				"name" : "bach.flat.mxe64",
				"type" : "mx64"
			}
, 			{
				"name" : "bach.gcd.maxpat",
				"bootpath" : "~/Documents/Max 8/Packages/bach/patchers",
				"patcherrelativepath" : "../../../../Documents/Max 8/Packages/bach/patchers",
				"type" : "JSON",
				"implicit" : 1
			}
, 			{
				"name" : "bach.gt.mxe64",
				"type" : "mx64"
			}
, 			{
				"name" : "bach.intersection.mxe64",
				"type" : "mx64"
			}
, 			{
				"name" : "bach.is.mxe64",
				"type" : "mx64"
			}
, 			{
				"name" : "bach.iter.mxe64",
				"type" : "mx64"
			}
, 			{
				"name" : "bach.join.mxe64",
				"type" : "mx64"
			}
, 			{
				"name" : "bach.keys.mxe64",
				"type" : "mx64"
			}
, 			{
				"name" : "bach.length.mxe64",
				"type" : "mx64"
			}
, 			{
				"name" : "bach.neq.mxe64",
				"type" : "mx64"
			}
, 			{
				"name" : "bach.nth.mxe64",
				"type" : "mx64"
			}
, 			{
				"name" : "bach.pick.mxe64",
				"type" : "mx64"
			}
, 			{
				"name" : "bach.playkeys.mxe64",
				"type" : "mx64"
			}
, 			{
				"name" : "bach.portal.mxe64",
				"type" : "mx64"
			}
, 			{
				"name" : "bach.print.mxe64",
				"type" : "mx64"
			}
, 			{
				"name" : "bach.quantize.mxe64",
				"type" : "mx64"
			}
, 			{
				"name" : "bach.reg.mxe64",
				"type" : "mx64"
			}
, 			{
				"name" : "bach.roll.mxe64",
				"type" : "mx64"
			}
, 			{
				"name" : "bach.score.mxe64",
				"type" : "mx64"
			}
, 			{
				"name" : "bach.slice.mxe64",
				"type" : "mx64"
			}
, 			{
				"name" : "bach.symdiff.mxe64",
				"type" : "mx64"
			}
, 			{
				"name" : "bach.thin.mxe64",
				"type" : "mx64"
			}
, 			{
				"name" : "bach.wrap.mxe64",
				"type" : "mx64"
			}
, 			{
				"name" : "collect.maxpat",
				"bootpath" : "~/Documents/Max 8/Packages/RTC-lib_71-Win/patchers/Lists",
				"patcherrelativepath" : "../../../../Documents/Max 8/Packages/RTC-lib_71-Win/patchers/Lists",
				"type" : "JSON",
				"implicit" : 1
			}
 ],
		"autosave" : 0
	}

}
